M48
; DRILL file {KiCad 9.0.7} date 2026-04-12T13:03:47+0200
; FORMAT={-:-/ absolute / metric / decimal}
; #@! TF.CreationDate,2026-04-12T13:03:47+02:00
; #@! TF.GenerationSoftware,Kicad,Pcbnew,9.0.7
; #@! TF.FileFunction,Plated,1,2,PTH
FMAT,2
METRIC
; #@! TA.AperFunction,Plated,PTH,ViaDrill
T1C0.300
; #@! TA.AperFunction,Plated,PTH,ComponentDrill
T2C0.750
; #@! TA.AperFunction,Plated,PTH,ComponentDrill
T3C0.800
; #@! TA.AperFunction,Plated,PTH,ComponentDrill
T4C0.850
; #@! TA.AperFunction,Plated,PTH,ComponentDrill
T5C0.920
; #@! TA.AperFunction,Plated,PTH,ComponentDrill
T6C1.000
; #@! TA.AperFunction,Plated,PTH,ComponentDrill
T7C1.100
; #@! TA.AperFunction,Plated,PTH,ComponentDrill
T8C2.200
; #@! TA.AperFunction,Plated,PTH,ComponentDrill
T9C2.300
%
G90
G05
T1
X7.0Y74.0
X12.0Y72.25
X17.75Y71.25
X19.5Y74.0
X20.0Y67.0
X20.0Y60.5
X24.0Y32.25
X24.01Y30.25
X25.0Y87.0
X25.787Y25.212
X26.5Y56.0
X26.75Y74.0
X26.75Y11.75
X27.541Y27.209
X28.0Y53.75
X28.0Y50.25
X28.75Y25.25
X29.516Y74.016
X30.75Y11.75
X31.75Y76.0
X31.75Y68.5
X34.25Y27.0
X37.0Y87.0
X37.0Y56.0
X39.25Y32.25
X39.25Y30.25
X40.5Y25.25
X40.75Y34.5
X42.5Y32.75
X42.5Y22.75
X44.5Y87.0
X46.0Y72.75
X47.0Y65.75
X47.25Y87.0
X47.25Y71.226
X47.25Y68.25
X47.25Y41.0
X48.5Y70.575
X48.5Y67.0
X48.75Y54.5
X49.5Y72.75
X49.75Y69.75
X49.75Y53.25
X49.75Y41.0
X50.0Y77.75
X50.75Y71.4
X51.75Y70.75
X51.75Y69.75
X52.0Y65.75
X52.0Y53.25
X52.75Y54.5
X53.75Y67.0
X54.0Y73.75
X54.0Y71.575
X54.75Y77.75
X54.75Y68.25
X55.5Y75.825
X60.75Y71.75
X62.462Y68.788
X62.5Y75.825
X63.75Y45.75
X63.765Y68.925
X63.765Y75.825
X64.75Y76.0
X64.75Y68.75
X65.75Y70.75
X66.0Y76.25
X66.0Y69.75
X66.25Y45.575
X68.75Y75.825
T2
X23.0Y90.25
X24.27Y90.25
X25.54Y90.25
X28.91Y90.2
X30.18Y90.2
X31.45Y90.2
X34.66Y90.2
X35.93Y90.2
X37.2Y90.2
T3
X3.75Y78.58
X3.75Y68.42
X4.0Y86.25
X4.17Y65.2
X4.17Y49.96
X4.25Y46.58
X4.25Y36.42
X6.71Y65.2
X6.71Y49.96
X6.75Y78.58
X6.75Y68.42
X7.25Y46.66
X7.25Y36.5
X9.25Y65.2
X9.25Y49.96
X11.5Y86.25
X11.75Y46.58
X11.75Y36.42
X11.79Y65.2
X11.79Y49.96
X12.75Y78.58
X12.75Y68.42
X14.33Y65.2
X14.33Y49.96
X14.5Y94.25
X14.5Y86.75
X15.75Y78.58
X15.75Y68.42
X19.09Y5.91
X19.25Y44.16
X19.75Y31.9
X19.75Y29.36
X19.75Y26.82
X19.75Y21.66
X19.75Y19.12
X19.75Y16.58
X24.01Y28.94
X24.01Y21.32
X26.55Y28.94
X26.55Y21.32
X26.75Y41.48
X26.75Y31.32
X26.75Y18.98
X26.75Y8.82
X29.09Y28.94
X29.09Y21.32
X29.25Y5.91
X29.41Y44.16
X31.63Y28.94
X31.63Y21.32
X34.0Y5.91
X34.17Y28.94
X34.17Y21.32
X34.25Y44.16
X36.71Y28.94
X36.71Y21.32
X36.75Y41.32
X36.75Y31.16
X36.75Y18.91
X36.75Y8.75
X39.25Y28.94
X39.25Y21.32
X41.25Y94.25
X41.25Y91.25
X43.25Y51.25
X43.25Y48.25
X43.75Y31.4
X43.75Y28.86
X43.75Y26.32
X43.75Y21.24
X43.75Y18.7
X43.75Y16.16
X44.16Y5.91
X44.41Y44.16
X48.75Y94.25
X48.75Y91.25
X49.67Y33.91
X49.88Y29.28
X49.88Y21.66
X50.75Y51.25
X50.75Y48.25
X52.21Y33.91
X52.42Y29.28
X52.42Y21.66
X54.75Y33.91
X54.96Y29.28
X54.96Y21.66
X57.5Y49.25
X57.5Y41.75
X57.5Y29.28
X57.5Y21.66
X58.5Y37.16
X61.0Y33.91
X61.0Y23.75
X61.01Y51.0
X61.01Y43.38
X63.55Y51.0
X63.55Y43.38
X63.67Y33.5
X66.0Y40.5
X66.09Y51.0
X66.09Y43.38
X68.63Y51.0
X68.63Y43.38
X68.66Y37.16
X69.0Y92.25
X71.17Y51.0
X71.17Y43.38
X73.71Y51.0
X73.71Y43.38
X73.83Y33.5
X75.25Y85.16
X75.25Y75.0
X76.16Y40.5
X76.25Y51.0
X76.25Y43.38
X76.5Y92.25
T4
X22.9Y79.465
X22.9Y64.034
X25.44Y79.465
X25.44Y64.034
X27.98Y79.465
X27.98Y64.034
X30.52Y79.465
X30.52Y64.034
X33.06Y79.465
X33.06Y64.034
X35.6Y79.465
X35.6Y64.034
X38.14Y79.465
X38.14Y64.034
X40.68Y79.465
X40.68Y64.034
X43.22Y79.465
X43.22Y64.034
X45.76Y79.465
X45.76Y64.034
X48.3Y79.465
X48.3Y64.034
X50.84Y79.465
X50.84Y64.034
X53.38Y79.465
X53.38Y64.034
X55.92Y79.465
X55.92Y64.034
X58.46Y79.465
X58.46Y64.034
X61.0Y79.465
X61.0Y64.034
X63.54Y79.465
X63.54Y64.034
X66.08Y79.465
X66.08Y64.034
X68.62Y79.465
X68.62Y64.034
X71.16Y79.465
X71.16Y64.034
T5
X56.5Y93.817
X59.0Y93.817
X61.0Y93.817
X63.5Y93.817
T6
X5.725Y81.75
X7.5Y30.08
X7.5Y27.54
X7.5Y25.0
X7.5Y22.46
X7.5Y19.92
X8.265Y81.75
X22.79Y84.75
X22.99Y58.75
X25.33Y84.75
X25.53Y58.75
X26.19Y95.5
X27.87Y84.75
X28.07Y58.75
X28.73Y95.5
X30.41Y84.75
X30.61Y58.75
X31.27Y95.5
X32.95Y84.75
X33.15Y58.75
X33.81Y95.5
X35.49Y84.75
X35.69Y58.75
X38.03Y84.75
X38.23Y58.75
X40.57Y84.75
X40.77Y58.75
X43.11Y84.75
X43.31Y58.75
X45.65Y84.75
X45.85Y58.75
X48.19Y84.75
X48.39Y58.75
X50.73Y84.75
X50.93Y58.75
X53.27Y84.75
X53.47Y58.75
X55.81Y84.75
X56.01Y58.75
X58.35Y84.75
X58.55Y58.75
X60.89Y84.75
X61.09Y58.75
X63.43Y84.75
X63.63Y58.75
X65.97Y84.75
X66.17Y58.75
X68.51Y84.75
X68.71Y58.75
X71.05Y84.75
X71.25Y58.75
X75.5Y67.79
X75.5Y65.25
X75.5Y61.29
X75.5Y58.75
T7
X5.21Y89.8
X7.75Y89.8
X10.29Y89.8
T8
X4.75Y5.75
X5.0Y96.0
X75.25Y96.25
X75.75Y5.75
T9
X53.43Y96.527
X66.57Y96.527
M30
