M48
; DRILL file {KiCad 9.0.7} date 2026-04-09T21:49:22+0200
; FORMAT={-:-/ absolute / metric / decimal}
; #@! TF.CreationDate,2026-04-09T21:49:22+02:00
; #@! TF.GenerationSoftware,Kicad,Pcbnew,9.0.7
; #@! TF.FileFunction,Plated,1,2,PTH
FMAT,2
METRIC
; #@! TA.AperFunction,Plated,PTH,ViaDrill
T1C0.300
; #@! TA.AperFunction,Plated,PTH,ComponentDrill
T2C0.800
; #@! TA.AperFunction,Plated,PTH,ComponentDrill
T3C0.850
; #@! TA.AperFunction,Plated,PTH,ComponentDrill
T4C1.000
; #@! TA.AperFunction,Plated,PTH,ComponentDrill
T5C1.100
%
G90
G05
T1
X6.25Y77.75
X6.25Y75.425
X15.25Y78.075
X15.25Y74.5
X22.25Y69.75
X23.329Y70.746
X24.0Y32.25
X24.0Y30.495
X24.75Y69.75
X25.75Y70.75
X27.482Y75.395
X28.0Y76.25
X28.5Y52.75
X28.5Y34.75
X29.825Y76.25
X30.235Y34.75
X30.283Y75.361
X30.785Y47.75
X31.0Y46.311
X31.0Y44.25
X32.435Y47.75
X37.515Y52.75
X39.25Y31.985
X39.25Y30.335
X41.0Y31.985
X41.0Y24.175
X42.0Y32.0
X42.0Y24.175
X47.227Y37.727
X48.393Y38.893
X57.0Y79.075
X57.5Y34.0
X58.75Y77.25
X59.325Y34.0
T2
X3.25Y79.25
X3.25Y69.09
X3.67Y65.87
X3.67Y50.63
X3.75Y47.25
X3.75Y37.09
X6.21Y65.87
X6.21Y50.63
X6.25Y79.25
X6.25Y69.09
X6.75Y47.33
X6.75Y37.17
X8.75Y65.87
X8.75Y50.63
X11.25Y47.25
X11.25Y37.09
X11.29Y65.87
X11.29Y50.63
X12.25Y79.25
X12.25Y69.09
X13.83Y65.87
X13.83Y50.63
X14.5Y94.25
X14.5Y86.75
X15.25Y79.25
X15.25Y69.09
X19.09Y5.91
X19.25Y44.16
X19.75Y31.9
X19.75Y29.36
X19.75Y26.82
X19.75Y21.66
X19.75Y19.12
X19.75Y16.58
X24.01Y28.94
X24.01Y21.32
X26.55Y28.94
X26.55Y21.32
X26.75Y41.48
X26.75Y31.32
X26.75Y18.98
X26.75Y8.82
X29.09Y28.94
X29.09Y21.32
X29.25Y5.91
X29.41Y44.16
X31.63Y28.94
X31.63Y21.32
X34.0Y5.91
X34.17Y28.94
X34.17Y21.32
X34.25Y44.16
X36.71Y28.94
X36.71Y21.32
X36.75Y41.32
X36.75Y31.16
X36.75Y18.91
X36.75Y8.75
X39.25Y28.94
X39.25Y21.32
X41.25Y94.25
X41.25Y91.25
X43.75Y31.4
X43.75Y28.86
X43.75Y26.32
X43.75Y21.24
X43.75Y18.7
X43.75Y16.16
X44.16Y5.91
X44.41Y44.16
X46.75Y54.75
X46.75Y51.75
X48.75Y94.25
X48.75Y91.25
X49.67Y33.91
X49.88Y29.28
X49.88Y21.66
X52.21Y33.91
X52.42Y29.28
X52.42Y21.66
X54.25Y54.75
X54.25Y51.75
X54.75Y33.91
X54.96Y29.28
X54.96Y21.66
X57.5Y29.28
X57.5Y21.66
X58.5Y37.16
X61.0Y33.91
X61.0Y23.75
X68.66Y37.16
T3
X23.9Y81.465
X23.9Y66.034
X26.44Y81.465
X26.44Y66.034
X28.98Y81.465
X28.98Y66.034
X31.52Y81.465
X31.52Y66.034
X34.06Y81.465
X34.06Y66.034
X36.6Y81.465
X36.6Y66.034
X39.14Y81.465
X39.14Y66.034
X41.68Y81.465
X41.68Y66.034
X44.22Y81.465
X44.22Y66.034
X46.76Y81.465
X46.76Y66.034
X49.3Y81.465
X49.3Y66.034
X51.84Y81.465
X51.84Y66.034
X54.38Y81.465
X54.38Y66.034
X56.92Y81.465
X56.92Y66.034
X59.46Y81.465
X59.46Y66.034
X62.0Y81.465
X62.0Y66.034
X64.54Y81.465
X64.54Y66.034
X67.08Y81.465
X67.08Y66.034
X69.62Y81.465
X69.62Y66.034
X72.16Y81.465
X72.16Y66.034
T4
X5.21Y83.75
X7.5Y30.08
X7.5Y27.54
X7.5Y25.0
X7.5Y22.46
X7.5Y19.92
X7.75Y83.75
X23.79Y86.75
X23.99Y60.75
X26.33Y86.75
X26.53Y60.75
X28.87Y86.75
X28.94Y94.25
X29.07Y60.75
X31.41Y86.75
X31.48Y94.25
X31.61Y60.75
X33.95Y86.75
X34.02Y94.25
X34.15Y60.75
X36.49Y86.75
X36.56Y94.25
X36.69Y60.75
X39.03Y86.75
X39.23Y60.75
X41.57Y86.75
X41.77Y60.75
X44.11Y86.75
X44.31Y60.75
X46.65Y86.75
X46.85Y60.75
X49.19Y86.75
X49.39Y60.75
X51.73Y86.75
X51.93Y60.75
X54.27Y86.75
X54.47Y60.75
X56.81Y86.75
X57.01Y60.75
X59.35Y86.75
X59.55Y60.75
X61.89Y86.75
X62.09Y60.75
X64.43Y86.75
X64.63Y60.75
X66.97Y86.75
X67.17Y60.75
X69.21Y94.79
X69.21Y92.25
X69.51Y86.75
X69.71Y60.75
X71.75Y94.79
X71.75Y92.25
X72.05Y86.75
X72.25Y60.75
X74.29Y94.79
X74.29Y92.25
X76.5Y78.25
X76.5Y75.71
X76.5Y71.75
X76.5Y69.21
X76.83Y94.79
X76.83Y92.25
T5
X5.21Y89.8
X7.75Y89.8
X10.29Y89.8
M30
