%TF.GenerationSoftware,KiCad,Pcbnew,9.0.7*%
%TF.CreationDate,2026-04-12T13:03:44+02:00*%
%TF.ProjectId,EMK310_P2_rev1,454d4b33-3130-45f5-9032-5f726576312e,rev?*%
%TF.SameCoordinates,PX5b8d800PY8677d40*%
%TF.FileFunction,Legend,Top*%
%TF.FilePolarity,Positive*%
%FSLAX46Y46*%
G04 Gerber Fmt 4.6, Leading zero omitted, Abs format (unit mm)*
G04 Created by KiCad (PCBNEW 9.0.7) date 2026-04-12 13:03:44*
%MOMM*%
%LPD*%
G01*
G04 APERTURE LIST*
%ADD10C,0.200000*%
%ADD11C,0.150000*%
%ADD12C,0.120000*%
%ADD13C,0.127000*%
G04 APERTURE END LIST*
D10*
X58511278Y17754462D02*
X58606516Y17849700D01*
X58606516Y17849700D02*
X58796992Y17944938D01*
X58796992Y17944938D02*
X59273183Y17944938D01*
X59273183Y17944938D02*
X59463659Y17849700D01*
X59463659Y17849700D02*
X59558897Y17754462D01*
X59558897Y17754462D02*
X59654135Y17563986D01*
X59654135Y17563986D02*
X59654135Y17373510D01*
X59654135Y17373510D02*
X59558897Y17087796D01*
X59558897Y17087796D02*
X58416040Y15944938D01*
X58416040Y15944938D02*
X59654135Y15944938D01*
X60320802Y17944938D02*
X61558897Y17944938D01*
X61558897Y17944938D02*
X60892230Y17183034D01*
X60892230Y17183034D02*
X61177945Y17183034D01*
X61177945Y17183034D02*
X61368421Y17087796D01*
X61368421Y17087796D02*
X61463659Y16992557D01*
X61463659Y16992557D02*
X61558897Y16802081D01*
X61558897Y16802081D02*
X61558897Y16325891D01*
X61558897Y16325891D02*
X61463659Y16135415D01*
X61463659Y16135415D02*
X61368421Y16040176D01*
X61368421Y16040176D02*
X61177945Y15944938D01*
X61177945Y15944938D02*
X60606516Y15944938D01*
X60606516Y15944938D02*
X60416040Y16040176D01*
X60416040Y16040176D02*
X60320802Y16135415D01*
X63273183Y17944938D02*
X62892230Y17944938D01*
X62892230Y17944938D02*
X62701754Y17849700D01*
X62701754Y17849700D02*
X62606516Y17754462D01*
X62606516Y17754462D02*
X62416040Y17468748D01*
X62416040Y17468748D02*
X62320802Y17087796D01*
X62320802Y17087796D02*
X62320802Y16325891D01*
X62320802Y16325891D02*
X62416040Y16135415D01*
X62416040Y16135415D02*
X62511278Y16040176D01*
X62511278Y16040176D02*
X62701754Y15944938D01*
X62701754Y15944938D02*
X63082707Y15944938D01*
X63082707Y15944938D02*
X63273183Y16040176D01*
X63273183Y16040176D02*
X63368421Y16135415D01*
X63368421Y16135415D02*
X63463659Y16325891D01*
X63463659Y16325891D02*
X63463659Y16802081D01*
X63463659Y16802081D02*
X63368421Y16992557D01*
X63368421Y16992557D02*
X63273183Y17087796D01*
X63273183Y17087796D02*
X63082707Y17183034D01*
X63082707Y17183034D02*
X62701754Y17183034D01*
X62701754Y17183034D02*
X62511278Y17087796D01*
X62511278Y17087796D02*
X62416040Y16992557D01*
X62416040Y16992557D02*
X62320802Y16802081D01*
X64416040Y15944938D02*
X64796992Y15944938D01*
X64796992Y15944938D02*
X64987469Y16040176D01*
X64987469Y16040176D02*
X65082707Y16135415D01*
X65082707Y16135415D02*
X65273183Y16421129D01*
X65273183Y16421129D02*
X65368421Y16802081D01*
X65368421Y16802081D02*
X65368421Y17563986D01*
X65368421Y17563986D02*
X65273183Y17754462D01*
X65273183Y17754462D02*
X65177945Y17849700D01*
X65177945Y17849700D02*
X64987469Y17944938D01*
X64987469Y17944938D02*
X64606516Y17944938D01*
X64606516Y17944938D02*
X64416040Y17849700D01*
X64416040Y17849700D02*
X64320802Y17754462D01*
X64320802Y17754462D02*
X64225564Y17563986D01*
X64225564Y17563986D02*
X64225564Y17087796D01*
X64225564Y17087796D02*
X64320802Y16897319D01*
X64320802Y16897319D02*
X64416040Y16802081D01*
X64416040Y16802081D02*
X64606516Y16706843D01*
X64606516Y16706843D02*
X64987469Y16706843D01*
X64987469Y16706843D02*
X65177945Y16802081D01*
X65177945Y16802081D02*
X65273183Y16897319D01*
X65273183Y16897319D02*
X65368421Y17087796D01*
X67082707Y17278272D02*
X67082707Y15944938D01*
X66606516Y18040176D02*
X66130326Y16611605D01*
X66130326Y16611605D02*
X67368421Y16611605D01*
X68225564Y15944938D02*
X68606516Y15944938D01*
X68606516Y15944938D02*
X68796993Y16040176D01*
X68796993Y16040176D02*
X68892231Y16135415D01*
X68892231Y16135415D02*
X69082707Y16421129D01*
X69082707Y16421129D02*
X69177945Y16802081D01*
X69177945Y16802081D02*
X69177945Y17563986D01*
X69177945Y17563986D02*
X69082707Y17754462D01*
X69082707Y17754462D02*
X68987469Y17849700D01*
X68987469Y17849700D02*
X68796993Y17944938D01*
X68796993Y17944938D02*
X68416040Y17944938D01*
X68416040Y17944938D02*
X68225564Y17849700D01*
X68225564Y17849700D02*
X68130326Y17754462D01*
X68130326Y17754462D02*
X68035088Y17563986D01*
X68035088Y17563986D02*
X68035088Y17087796D01*
X68035088Y17087796D02*
X68130326Y16897319D01*
X68130326Y16897319D02*
X68225564Y16802081D01*
X68225564Y16802081D02*
X68416040Y16706843D01*
X68416040Y16706843D02*
X68796993Y16706843D01*
X68796993Y16706843D02*
X68987469Y16802081D01*
X68987469Y16802081D02*
X69082707Y16897319D01*
X69082707Y16897319D02*
X69177945Y17087796D01*
X70987469Y17944938D02*
X70035088Y17944938D01*
X70035088Y17944938D02*
X69939850Y16992557D01*
X69939850Y16992557D02*
X70035088Y17087796D01*
X70035088Y17087796D02*
X70225564Y17183034D01*
X70225564Y17183034D02*
X70701755Y17183034D01*
X70701755Y17183034D02*
X70892231Y17087796D01*
X70892231Y17087796D02*
X70987469Y16992557D01*
X70987469Y16992557D02*
X71082707Y16802081D01*
X71082707Y16802081D02*
X71082707Y16325891D01*
X71082707Y16325891D02*
X70987469Y16135415D01*
X70987469Y16135415D02*
X70892231Y16040176D01*
X70892231Y16040176D02*
X70701755Y15944938D01*
X70701755Y15944938D02*
X70225564Y15944938D01*
X70225564Y15944938D02*
X70035088Y16040176D01*
X70035088Y16040176D02*
X69939850Y16135415D01*
X72796993Y17944938D02*
X72416040Y17944938D01*
X72416040Y17944938D02*
X72225564Y17849700D01*
X72225564Y17849700D02*
X72130326Y17754462D01*
X72130326Y17754462D02*
X71939850Y17468748D01*
X71939850Y17468748D02*
X71844612Y17087796D01*
X71844612Y17087796D02*
X71844612Y16325891D01*
X71844612Y16325891D02*
X71939850Y16135415D01*
X71939850Y16135415D02*
X72035088Y16040176D01*
X72035088Y16040176D02*
X72225564Y15944938D01*
X72225564Y15944938D02*
X72606517Y15944938D01*
X72606517Y15944938D02*
X72796993Y16040176D01*
X72796993Y16040176D02*
X72892231Y16135415D01*
X72892231Y16135415D02*
X72987469Y16325891D01*
X72987469Y16325891D02*
X72987469Y16802081D01*
X72987469Y16802081D02*
X72892231Y16992557D01*
X72892231Y16992557D02*
X72796993Y17087796D01*
X72796993Y17087796D02*
X72606517Y17183034D01*
X72606517Y17183034D02*
X72225564Y17183034D01*
X72225564Y17183034D02*
X72035088Y17087796D01*
X72035088Y17087796D02*
X71939850Y16992557D01*
X71939850Y16992557D02*
X71844612Y16802081D01*
X60892230Y14629812D02*
X60701754Y14725050D01*
X60701754Y14725050D02*
X60416040Y14725050D01*
X60416040Y14725050D02*
X60130325Y14629812D01*
X60130325Y14629812D02*
X59939849Y14439336D01*
X59939849Y14439336D02*
X59844611Y14248860D01*
X59844611Y14248860D02*
X59749373Y13867908D01*
X59749373Y13867908D02*
X59749373Y13582193D01*
X59749373Y13582193D02*
X59844611Y13201241D01*
X59844611Y13201241D02*
X59939849Y13010765D01*
X59939849Y13010765D02*
X60130325Y12820288D01*
X60130325Y12820288D02*
X60416040Y12725050D01*
X60416040Y12725050D02*
X60606516Y12725050D01*
X60606516Y12725050D02*
X60892230Y12820288D01*
X60892230Y12820288D02*
X60987468Y12915527D01*
X60987468Y12915527D02*
X60987468Y13582193D01*
X60987468Y13582193D02*
X60606516Y13582193D01*
X61844611Y12725050D02*
X61844611Y14058384D01*
X61844611Y13677431D02*
X61939849Y13867908D01*
X61939849Y13867908D02*
X62035087Y13963146D01*
X62035087Y13963146D02*
X62225563Y14058384D01*
X62225563Y14058384D02*
X62416040Y14058384D01*
X63368420Y12725050D02*
X63177944Y12820288D01*
X63177944Y12820288D02*
X63082706Y12915527D01*
X63082706Y12915527D02*
X62987468Y13106003D01*
X62987468Y13106003D02*
X62987468Y13677431D01*
X62987468Y13677431D02*
X63082706Y13867908D01*
X63082706Y13867908D02*
X63177944Y13963146D01*
X63177944Y13963146D02*
X63368420Y14058384D01*
X63368420Y14058384D02*
X63654135Y14058384D01*
X63654135Y14058384D02*
X63844611Y13963146D01*
X63844611Y13963146D02*
X63939849Y13867908D01*
X63939849Y13867908D02*
X64035087Y13677431D01*
X64035087Y13677431D02*
X64035087Y13106003D01*
X64035087Y13106003D02*
X63939849Y12915527D01*
X63939849Y12915527D02*
X63844611Y12820288D01*
X63844611Y12820288D02*
X63654135Y12725050D01*
X63654135Y12725050D02*
X63368420Y12725050D01*
X65749373Y14058384D02*
X65749373Y12725050D01*
X64892230Y14058384D02*
X64892230Y13010765D01*
X64892230Y13010765D02*
X64987468Y12820288D01*
X64987468Y12820288D02*
X65177944Y12725050D01*
X65177944Y12725050D02*
X65463659Y12725050D01*
X65463659Y12725050D02*
X65654135Y12820288D01*
X65654135Y12820288D02*
X65749373Y12915527D01*
X66701754Y14058384D02*
X66701754Y12058384D01*
X66701754Y13963146D02*
X66892230Y14058384D01*
X66892230Y14058384D02*
X67273183Y14058384D01*
X67273183Y14058384D02*
X67463659Y13963146D01*
X67463659Y13963146D02*
X67558897Y13867908D01*
X67558897Y13867908D02*
X67654135Y13677431D01*
X67654135Y13677431D02*
X67654135Y13106003D01*
X67654135Y13106003D02*
X67558897Y12915527D01*
X67558897Y12915527D02*
X67463659Y12820288D01*
X67463659Y12820288D02*
X67273183Y12725050D01*
X67273183Y12725050D02*
X66892230Y12725050D01*
X66892230Y12725050D02*
X66701754Y12820288D01*
X70987469Y14725050D02*
X70035088Y14725050D01*
X70035088Y14725050D02*
X69939850Y13772669D01*
X69939850Y13772669D02*
X70035088Y13867908D01*
X70035088Y13867908D02*
X70225564Y13963146D01*
X70225564Y13963146D02*
X70701755Y13963146D01*
X70701755Y13963146D02*
X70892231Y13867908D01*
X70892231Y13867908D02*
X70987469Y13772669D01*
X70987469Y13772669D02*
X71082707Y13582193D01*
X71082707Y13582193D02*
X71082707Y13106003D01*
X71082707Y13106003D02*
X70987469Y12915527D01*
X70987469Y12915527D02*
X70892231Y12820288D01*
X70892231Y12820288D02*
X70701755Y12725050D01*
X70701755Y12725050D02*
X70225564Y12725050D01*
X70225564Y12725050D02*
X70035088Y12820288D01*
X70035088Y12820288D02*
X69939850Y12915527D01*
X72892231Y14725050D02*
X71939850Y14725050D01*
X71939850Y14725050D02*
X71844612Y13772669D01*
X71844612Y13772669D02*
X71939850Y13867908D01*
X71939850Y13867908D02*
X72130326Y13963146D01*
X72130326Y13963146D02*
X72606517Y13963146D01*
X72606517Y13963146D02*
X72796993Y13867908D01*
X72796993Y13867908D02*
X72892231Y13772669D01*
X72892231Y13772669D02*
X72987469Y13582193D01*
X72987469Y13582193D02*
X72987469Y13106003D01*
X72987469Y13106003D02*
X72892231Y12915527D01*
X72892231Y12915527D02*
X72796993Y12820288D01*
X72796993Y12820288D02*
X72606517Y12725050D01*
X72606517Y12725050D02*
X72130326Y12725050D01*
X72130326Y12725050D02*
X71939850Y12820288D01*
X71939850Y12820288D02*
X71844612Y12915527D01*
X46416039Y11505162D02*
X46416039Y10076591D01*
X46416039Y10076591D02*
X46320800Y9790877D01*
X46320800Y9790877D02*
X46130324Y9600400D01*
X46130324Y9600400D02*
X45844610Y9505162D01*
X45844610Y9505162D02*
X45654134Y9505162D01*
X48225563Y9505162D02*
X48225563Y10552781D01*
X48225563Y10552781D02*
X48130325Y10743258D01*
X48130325Y10743258D02*
X47939849Y10838496D01*
X47939849Y10838496D02*
X47558896Y10838496D01*
X47558896Y10838496D02*
X47368420Y10743258D01*
X48225563Y9600400D02*
X48035087Y9505162D01*
X48035087Y9505162D02*
X47558896Y9505162D01*
X47558896Y9505162D02*
X47368420Y9600400D01*
X47368420Y9600400D02*
X47273182Y9790877D01*
X47273182Y9790877D02*
X47273182Y9981353D01*
X47273182Y9981353D02*
X47368420Y10171829D01*
X47368420Y10171829D02*
X47558896Y10267067D01*
X47558896Y10267067D02*
X48035087Y10267067D01*
X48035087Y10267067D02*
X48225563Y10362305D01*
X49177944Y10838496D02*
X49177944Y9505162D01*
X49177944Y10648020D02*
X49273182Y10743258D01*
X49273182Y10743258D02*
X49463658Y10838496D01*
X49463658Y10838496D02*
X49749373Y10838496D01*
X49749373Y10838496D02*
X49939849Y10743258D01*
X49939849Y10743258D02*
X50035087Y10552781D01*
X50035087Y10552781D02*
X50035087Y9505162D01*
X50987468Y10267067D02*
X52511278Y10267067D01*
X53463658Y9505162D02*
X53463658Y11505162D01*
X53463658Y10552781D02*
X54606515Y10552781D01*
X54606515Y9505162D02*
X54606515Y11505162D01*
X56320801Y9600400D02*
X56130325Y9505162D01*
X56130325Y9505162D02*
X55749372Y9505162D01*
X55749372Y9505162D02*
X55558896Y9600400D01*
X55558896Y9600400D02*
X55463658Y9790877D01*
X55463658Y9790877D02*
X55463658Y10552781D01*
X55463658Y10552781D02*
X55558896Y10743258D01*
X55558896Y10743258D02*
X55749372Y10838496D01*
X55749372Y10838496D02*
X56130325Y10838496D01*
X56130325Y10838496D02*
X56320801Y10743258D01*
X56320801Y10743258D02*
X56416039Y10552781D01*
X56416039Y10552781D02*
X56416039Y10362305D01*
X56416039Y10362305D02*
X55463658Y10171829D01*
X57273182Y10838496D02*
X57273182Y9505162D01*
X57273182Y10648020D02*
X57368420Y10743258D01*
X57368420Y10743258D02*
X57558896Y10838496D01*
X57558896Y10838496D02*
X57844611Y10838496D01*
X57844611Y10838496D02*
X58035087Y10743258D01*
X58035087Y10743258D02*
X58130325Y10552781D01*
X58130325Y10552781D02*
X58130325Y9505162D01*
X59939849Y9505162D02*
X59939849Y11505162D01*
X59939849Y9600400D02*
X59749373Y9505162D01*
X59749373Y9505162D02*
X59368420Y9505162D01*
X59368420Y9505162D02*
X59177944Y9600400D01*
X59177944Y9600400D02*
X59082706Y9695639D01*
X59082706Y9695639D02*
X58987468Y9886115D01*
X58987468Y9886115D02*
X58987468Y10457543D01*
X58987468Y10457543D02*
X59082706Y10648020D01*
X59082706Y10648020D02*
X59177944Y10743258D01*
X59177944Y10743258D02*
X59368420Y10838496D01*
X59368420Y10838496D02*
X59749373Y10838496D01*
X59749373Y10838496D02*
X59939849Y10743258D01*
X60892230Y9505162D02*
X60892230Y10838496D01*
X60892230Y10457543D02*
X60987468Y10648020D01*
X60987468Y10648020D02*
X61082706Y10743258D01*
X61082706Y10743258D02*
X61273182Y10838496D01*
X61273182Y10838496D02*
X61463659Y10838496D01*
X62130325Y9505162D02*
X62130325Y10838496D01*
X62130325Y11505162D02*
X62035087Y11409924D01*
X62035087Y11409924D02*
X62130325Y11314686D01*
X62130325Y11314686D02*
X62225563Y11409924D01*
X62225563Y11409924D02*
X62130325Y11505162D01*
X62130325Y11505162D02*
X62130325Y11314686D01*
X63082706Y9505162D02*
X63082706Y11505162D01*
X63273182Y10267067D02*
X63844611Y9505162D01*
X63844611Y10838496D02*
X63082706Y10076591D01*
X66892231Y10552781D02*
X67177945Y10457543D01*
X67177945Y10457543D02*
X67273183Y10362305D01*
X67273183Y10362305D02*
X67368421Y10171829D01*
X67368421Y10171829D02*
X67368421Y9886115D01*
X67368421Y9886115D02*
X67273183Y9695639D01*
X67273183Y9695639D02*
X67177945Y9600400D01*
X67177945Y9600400D02*
X66987469Y9505162D01*
X66987469Y9505162D02*
X66225564Y9505162D01*
X66225564Y9505162D02*
X66225564Y11505162D01*
X66225564Y11505162D02*
X66892231Y11505162D01*
X66892231Y11505162D02*
X67082707Y11409924D01*
X67082707Y11409924D02*
X67177945Y11314686D01*
X67177945Y11314686D02*
X67273183Y11124210D01*
X67273183Y11124210D02*
X67273183Y10933734D01*
X67273183Y10933734D02*
X67177945Y10743258D01*
X67177945Y10743258D02*
X67082707Y10648020D01*
X67082707Y10648020D02*
X66892231Y10552781D01*
X66892231Y10552781D02*
X66225564Y10552781D01*
X68225564Y9505162D02*
X68225564Y10838496D01*
X68225564Y10457543D02*
X68320802Y10648020D01*
X68320802Y10648020D02*
X68416040Y10743258D01*
X68416040Y10743258D02*
X68606516Y10838496D01*
X68606516Y10838496D02*
X68796993Y10838496D01*
X69463659Y9505162D02*
X69463659Y10838496D01*
X69463659Y11505162D02*
X69368421Y11409924D01*
X69368421Y11409924D02*
X69463659Y11314686D01*
X69463659Y11314686D02*
X69558897Y11409924D01*
X69558897Y11409924D02*
X69463659Y11505162D01*
X69463659Y11505162D02*
X69463659Y11314686D01*
X70416040Y10838496D02*
X70416040Y9505162D01*
X70416040Y10648020D02*
X70511278Y10743258D01*
X70511278Y10743258D02*
X70701754Y10838496D01*
X70701754Y10838496D02*
X70987469Y10838496D01*
X70987469Y10838496D02*
X71177945Y10743258D01*
X71177945Y10743258D02*
X71273183Y10552781D01*
X71273183Y10552781D02*
X71273183Y9505162D01*
X72225564Y9505162D02*
X72225564Y11505162D01*
X72416040Y10267067D02*
X72987469Y9505162D01*
X72987469Y10838496D02*
X72225564Y10076591D01*
D11*
X57333333Y39390420D02*
X57285714Y39342800D01*
X57285714Y39342800D02*
X57142857Y39295181D01*
X57142857Y39295181D02*
X57047619Y39295181D01*
X57047619Y39295181D02*
X56904762Y39342800D01*
X56904762Y39342800D02*
X56809524Y39438039D01*
X56809524Y39438039D02*
X56761905Y39533277D01*
X56761905Y39533277D02*
X56714286Y39723753D01*
X56714286Y39723753D02*
X56714286Y39866610D01*
X56714286Y39866610D02*
X56761905Y40057086D01*
X56761905Y40057086D02*
X56809524Y40152324D01*
X56809524Y40152324D02*
X56904762Y40247562D01*
X56904762Y40247562D02*
X57047619Y40295181D01*
X57047619Y40295181D02*
X57142857Y40295181D01*
X57142857Y40295181D02*
X57285714Y40247562D01*
X57285714Y40247562D02*
X57333333Y40199943D01*
X57666667Y40295181D02*
X58333333Y40295181D01*
X58333333Y40295181D02*
X57904762Y39295181D01*
X63824819Y28187143D02*
X63348628Y27853810D01*
X63824819Y27615715D02*
X62824819Y27615715D01*
X62824819Y27615715D02*
X62824819Y27996667D01*
X62824819Y27996667D02*
X62872438Y28091905D01*
X62872438Y28091905D02*
X62920057Y28139524D01*
X62920057Y28139524D02*
X63015295Y28187143D01*
X63015295Y28187143D02*
X63158152Y28187143D01*
X63158152Y28187143D02*
X63253390Y28139524D01*
X63253390Y28139524D02*
X63301009Y28091905D01*
X63301009Y28091905D02*
X63348628Y27996667D01*
X63348628Y27996667D02*
X63348628Y27615715D01*
X62920057Y28568096D02*
X62872438Y28615715D01*
X62872438Y28615715D02*
X62824819Y28710953D01*
X62824819Y28710953D02*
X62824819Y28949048D01*
X62824819Y28949048D02*
X62872438Y29044286D01*
X62872438Y29044286D02*
X62920057Y29091905D01*
X62920057Y29091905D02*
X63015295Y29139524D01*
X63015295Y29139524D02*
X63110533Y29139524D01*
X63110533Y29139524D02*
X63253390Y29091905D01*
X63253390Y29091905D02*
X63824819Y28520477D01*
X63824819Y28520477D02*
X63824819Y29139524D01*
X62824819Y30044286D02*
X62824819Y29568096D01*
X62824819Y29568096D02*
X63301009Y29520477D01*
X63301009Y29520477D02*
X63253390Y29568096D01*
X63253390Y29568096D02*
X63205771Y29663334D01*
X63205771Y29663334D02*
X63205771Y29901429D01*
X63205771Y29901429D02*
X63253390Y29996667D01*
X63253390Y29996667D02*
X63301009Y30044286D01*
X63301009Y30044286D02*
X63396247Y30091905D01*
X63396247Y30091905D02*
X63634342Y30091905D01*
X63634342Y30091905D02*
X63729580Y30044286D01*
X63729580Y30044286D02*
X63777200Y29996667D01*
X63777200Y29996667D02*
X63824819Y29901429D01*
X63824819Y29901429D02*
X63824819Y29663334D01*
X63824819Y29663334D02*
X63777200Y29568096D01*
X63777200Y29568096D02*
X63729580Y29520477D01*
X50583333Y93890420D02*
X50535714Y93842800D01*
X50535714Y93842800D02*
X50392857Y93795181D01*
X50392857Y93795181D02*
X50297619Y93795181D01*
X50297619Y93795181D02*
X50154762Y93842800D01*
X50154762Y93842800D02*
X50059524Y93938039D01*
X50059524Y93938039D02*
X50011905Y94033277D01*
X50011905Y94033277D02*
X49964286Y94223753D01*
X49964286Y94223753D02*
X49964286Y94366610D01*
X49964286Y94366610D02*
X50011905Y94557086D01*
X50011905Y94557086D02*
X50059524Y94652324D01*
X50059524Y94652324D02*
X50154762Y94747562D01*
X50154762Y94747562D02*
X50297619Y94795181D01*
X50297619Y94795181D02*
X50392857Y94795181D01*
X50392857Y94795181D02*
X50535714Y94747562D01*
X50535714Y94747562D02*
X50583333Y94699943D01*
X51535714Y93795181D02*
X50964286Y93795181D01*
X51250000Y93795181D02*
X51250000Y94795181D01*
X51250000Y94795181D02*
X51154762Y94652324D01*
X51154762Y94652324D02*
X51059524Y94557086D01*
X51059524Y94557086D02*
X50964286Y94509467D01*
X17359580Y90333334D02*
X17407200Y90285715D01*
X17407200Y90285715D02*
X17454819Y90142858D01*
X17454819Y90142858D02*
X17454819Y90047620D01*
X17454819Y90047620D02*
X17407200Y89904763D01*
X17407200Y89904763D02*
X17311961Y89809525D01*
X17311961Y89809525D02*
X17216723Y89761906D01*
X17216723Y89761906D02*
X17026247Y89714287D01*
X17026247Y89714287D02*
X16883390Y89714287D01*
X16883390Y89714287D02*
X16692914Y89761906D01*
X16692914Y89761906D02*
X16597676Y89809525D01*
X16597676Y89809525D02*
X16502438Y89904763D01*
X16502438Y89904763D02*
X16454819Y90047620D01*
X16454819Y90047620D02*
X16454819Y90142858D01*
X16454819Y90142858D02*
X16502438Y90285715D01*
X16502438Y90285715D02*
X16550057Y90333334D01*
X16454819Y91238096D02*
X16454819Y90761906D01*
X16454819Y90761906D02*
X16931009Y90714287D01*
X16931009Y90714287D02*
X16883390Y90761906D01*
X16883390Y90761906D02*
X16835771Y90857144D01*
X16835771Y90857144D02*
X16835771Y91095239D01*
X16835771Y91095239D02*
X16883390Y91190477D01*
X16883390Y91190477D02*
X16931009Y91238096D01*
X16931009Y91238096D02*
X17026247Y91285715D01*
X17026247Y91285715D02*
X17264342Y91285715D01*
X17264342Y91285715D02*
X17359580Y91238096D01*
X17359580Y91238096D02*
X17407200Y91190477D01*
X17407200Y91190477D02*
X17454819Y91095239D01*
X17454819Y91095239D02*
X17454819Y90857144D01*
X17454819Y90857144D02*
X17407200Y90761906D01*
X17407200Y90761906D02*
X17359580Y90714287D01*
X6954819Y16496667D02*
X7669104Y16496667D01*
X7669104Y16496667D02*
X7811961Y16449048D01*
X7811961Y16449048D02*
X7907200Y16353810D01*
X7907200Y16353810D02*
X7954819Y16210953D01*
X7954819Y16210953D02*
X7954819Y16115715D01*
X6954819Y17449048D02*
X6954819Y16972858D01*
X6954819Y16972858D02*
X7431009Y16925239D01*
X7431009Y16925239D02*
X7383390Y16972858D01*
X7383390Y16972858D02*
X7335771Y17068096D01*
X7335771Y17068096D02*
X7335771Y17306191D01*
X7335771Y17306191D02*
X7383390Y17401429D01*
X7383390Y17401429D02*
X7431009Y17449048D01*
X7431009Y17449048D02*
X7526247Y17496667D01*
X7526247Y17496667D02*
X7764342Y17496667D01*
X7764342Y17496667D02*
X7859580Y17449048D01*
X7859580Y17449048D02*
X7907200Y17401429D01*
X7907200Y17401429D02*
X7954819Y17306191D01*
X7954819Y17306191D02*
X7954819Y17068096D01*
X7954819Y17068096D02*
X7907200Y16972858D01*
X7907200Y16972858D02*
X7859580Y16925239D01*
X70833333Y94715420D02*
X70785714Y94667800D01*
X70785714Y94667800D02*
X70642857Y94620181D01*
X70642857Y94620181D02*
X70547619Y94620181D01*
X70547619Y94620181D02*
X70404762Y94667800D01*
X70404762Y94667800D02*
X70309524Y94763039D01*
X70309524Y94763039D02*
X70261905Y94858277D01*
X70261905Y94858277D02*
X70214286Y95048753D01*
X70214286Y95048753D02*
X70214286Y95191610D01*
X70214286Y95191610D02*
X70261905Y95382086D01*
X70261905Y95382086D02*
X70309524Y95477324D01*
X70309524Y95477324D02*
X70404762Y95572562D01*
X70404762Y95572562D02*
X70547619Y95620181D01*
X70547619Y95620181D02*
X70642857Y95620181D01*
X70642857Y95620181D02*
X70785714Y95572562D01*
X70785714Y95572562D02*
X70833333Y95524943D01*
X71690476Y95620181D02*
X71500000Y95620181D01*
X71500000Y95620181D02*
X71404762Y95572562D01*
X71404762Y95572562D02*
X71357143Y95524943D01*
X71357143Y95524943D02*
X71261905Y95382086D01*
X71261905Y95382086D02*
X71214286Y95191610D01*
X71214286Y95191610D02*
X71214286Y94810658D01*
X71214286Y94810658D02*
X71261905Y94715420D01*
X71261905Y94715420D02*
X71309524Y94667800D01*
X71309524Y94667800D02*
X71404762Y94620181D01*
X71404762Y94620181D02*
X71595238Y94620181D01*
X71595238Y94620181D02*
X71690476Y94667800D01*
X71690476Y94667800D02*
X71738095Y94715420D01*
X71738095Y94715420D02*
X71785714Y94810658D01*
X71785714Y94810658D02*
X71785714Y95048753D01*
X71785714Y95048753D02*
X71738095Y95143991D01*
X71738095Y95143991D02*
X71690476Y95191610D01*
X71690476Y95191610D02*
X71595238Y95239229D01*
X71595238Y95239229D02*
X71404762Y95239229D01*
X71404762Y95239229D02*
X71309524Y95191610D01*
X71309524Y95191610D02*
X71261905Y95143991D01*
X71261905Y95143991D02*
X71214286Y95048753D01*
X1919104Y56008572D02*
X1919104Y56484762D01*
X2204819Y55913334D02*
X1204819Y56246667D01*
X1204819Y56246667D02*
X2204819Y56580000D01*
X1681009Y57246667D02*
X1681009Y56913334D01*
X2204819Y56913334D02*
X1204819Y56913334D01*
X1204819Y56913334D02*
X1204819Y57389524D01*
X1681009Y58103810D02*
X1681009Y57770477D01*
X2204819Y57770477D02*
X1204819Y57770477D01*
X1204819Y57770477D02*
X1204819Y58246667D01*
X2204819Y59151429D02*
X2204819Y58580001D01*
X2204819Y58865715D02*
X1204819Y58865715D01*
X1204819Y58865715D02*
X1347676Y58770477D01*
X1347676Y58770477D02*
X1442914Y58675239D01*
X1442914Y58675239D02*
X1490533Y58580001D01*
X48204819Y17904762D02*
X47728628Y17571429D01*
X48204819Y17333334D02*
X47204819Y17333334D01*
X47204819Y17333334D02*
X47204819Y17714286D01*
X47204819Y17714286D02*
X47252438Y17809524D01*
X47252438Y17809524D02*
X47300057Y17857143D01*
X47300057Y17857143D02*
X47395295Y17904762D01*
X47395295Y17904762D02*
X47538152Y17904762D01*
X47538152Y17904762D02*
X47633390Y17857143D01*
X47633390Y17857143D02*
X47681009Y17809524D01*
X47681009Y17809524D02*
X47728628Y17714286D01*
X47728628Y17714286D02*
X47728628Y17333334D01*
X47204819Y18190477D02*
X48204819Y18523810D01*
X48204819Y18523810D02*
X47204819Y18857143D01*
X48204819Y19714286D02*
X48204819Y19142858D01*
X48204819Y19428572D02*
X47204819Y19428572D01*
X47204819Y19428572D02*
X47347676Y19333334D01*
X47347676Y19333334D02*
X47442914Y19238096D01*
X47442914Y19238096D02*
X47490533Y19142858D01*
X2454819Y40857143D02*
X1978628Y40523810D01*
X2454819Y40285715D02*
X1454819Y40285715D01*
X1454819Y40285715D02*
X1454819Y40666667D01*
X1454819Y40666667D02*
X1502438Y40761905D01*
X1502438Y40761905D02*
X1550057Y40809524D01*
X1550057Y40809524D02*
X1645295Y40857143D01*
X1645295Y40857143D02*
X1788152Y40857143D01*
X1788152Y40857143D02*
X1883390Y40809524D01*
X1883390Y40809524D02*
X1931009Y40761905D01*
X1931009Y40761905D02*
X1978628Y40666667D01*
X1978628Y40666667D02*
X1978628Y40285715D01*
X1550057Y41238096D02*
X1502438Y41285715D01*
X1502438Y41285715D02*
X1454819Y41380953D01*
X1454819Y41380953D02*
X1454819Y41619048D01*
X1454819Y41619048D02*
X1502438Y41714286D01*
X1502438Y41714286D02*
X1550057Y41761905D01*
X1550057Y41761905D02*
X1645295Y41809524D01*
X1645295Y41809524D02*
X1740533Y41809524D01*
X1740533Y41809524D02*
X1883390Y41761905D01*
X1883390Y41761905D02*
X2454819Y41190477D01*
X2454819Y41190477D02*
X2454819Y41809524D01*
X1883390Y42380953D02*
X1835771Y42285715D01*
X1835771Y42285715D02*
X1788152Y42238096D01*
X1788152Y42238096D02*
X1692914Y42190477D01*
X1692914Y42190477D02*
X1645295Y42190477D01*
X1645295Y42190477D02*
X1550057Y42238096D01*
X1550057Y42238096D02*
X1502438Y42285715D01*
X1502438Y42285715D02*
X1454819Y42380953D01*
X1454819Y42380953D02*
X1454819Y42571429D01*
X1454819Y42571429D02*
X1502438Y42666667D01*
X1502438Y42666667D02*
X1550057Y42714286D01*
X1550057Y42714286D02*
X1645295Y42761905D01*
X1645295Y42761905D02*
X1692914Y42761905D01*
X1692914Y42761905D02*
X1788152Y42714286D01*
X1788152Y42714286D02*
X1835771Y42666667D01*
X1835771Y42666667D02*
X1883390Y42571429D01*
X1883390Y42571429D02*
X1883390Y42380953D01*
X1883390Y42380953D02*
X1931009Y42285715D01*
X1931009Y42285715D02*
X1978628Y42238096D01*
X1978628Y42238096D02*
X2073866Y42190477D01*
X2073866Y42190477D02*
X2264342Y42190477D01*
X2264342Y42190477D02*
X2359580Y42238096D01*
X2359580Y42238096D02*
X2407200Y42285715D01*
X2407200Y42285715D02*
X2454819Y42380953D01*
X2454819Y42380953D02*
X2454819Y42571429D01*
X2454819Y42571429D02*
X2407200Y42666667D01*
X2407200Y42666667D02*
X2359580Y42714286D01*
X2359580Y42714286D02*
X2264342Y42761905D01*
X2264342Y42761905D02*
X2073866Y42761905D01*
X2073866Y42761905D02*
X1978628Y42714286D01*
X1978628Y42714286D02*
X1931009Y42666667D01*
X1931009Y42666667D02*
X1883390Y42571429D01*
X30404761Y92199943D02*
X30309523Y92247562D01*
X30309523Y92247562D02*
X30214285Y92342800D01*
X30214285Y92342800D02*
X30071428Y92485658D01*
X30071428Y92485658D02*
X29976190Y92533277D01*
X29976190Y92533277D02*
X29880952Y92533277D01*
X29928571Y92295181D02*
X29833333Y92342800D01*
X29833333Y92342800D02*
X29738095Y92438039D01*
X29738095Y92438039D02*
X29690476Y92628515D01*
X29690476Y92628515D02*
X29690476Y92961848D01*
X29690476Y92961848D02*
X29738095Y93152324D01*
X29738095Y93152324D02*
X29833333Y93247562D01*
X29833333Y93247562D02*
X29928571Y93295181D01*
X29928571Y93295181D02*
X30119047Y93295181D01*
X30119047Y93295181D02*
X30214285Y93247562D01*
X30214285Y93247562D02*
X30309523Y93152324D01*
X30309523Y93152324D02*
X30357142Y92961848D01*
X30357142Y92961848D02*
X30357142Y92628515D01*
X30357142Y92628515D02*
X30309523Y92438039D01*
X30309523Y92438039D02*
X30214285Y92342800D01*
X30214285Y92342800D02*
X30119047Y92295181D01*
X30119047Y92295181D02*
X29928571Y92295181D01*
X30738095Y93199943D02*
X30785714Y93247562D01*
X30785714Y93247562D02*
X30880952Y93295181D01*
X30880952Y93295181D02*
X31119047Y93295181D01*
X31119047Y93295181D02*
X31214285Y93247562D01*
X31214285Y93247562D02*
X31261904Y93199943D01*
X31261904Y93199943D02*
X31309523Y93104705D01*
X31309523Y93104705D02*
X31309523Y93009467D01*
X31309523Y93009467D02*
X31261904Y92866610D01*
X31261904Y92866610D02*
X30690476Y92295181D01*
X30690476Y92295181D02*
X31309523Y92295181D01*
X77954819Y79107143D02*
X77478628Y78773810D01*
X77954819Y78535715D02*
X76954819Y78535715D01*
X76954819Y78535715D02*
X76954819Y78916667D01*
X76954819Y78916667D02*
X77002438Y79011905D01*
X77002438Y79011905D02*
X77050057Y79059524D01*
X77050057Y79059524D02*
X77145295Y79107143D01*
X77145295Y79107143D02*
X77288152Y79107143D01*
X77288152Y79107143D02*
X77383390Y79059524D01*
X77383390Y79059524D02*
X77431009Y79011905D01*
X77431009Y79011905D02*
X77478628Y78916667D01*
X77478628Y78916667D02*
X77478628Y78535715D01*
X76954819Y79440477D02*
X76954819Y80059524D01*
X76954819Y80059524D02*
X77335771Y79726191D01*
X77335771Y79726191D02*
X77335771Y79869048D01*
X77335771Y79869048D02*
X77383390Y79964286D01*
X77383390Y79964286D02*
X77431009Y80011905D01*
X77431009Y80011905D02*
X77526247Y80059524D01*
X77526247Y80059524D02*
X77764342Y80059524D01*
X77764342Y80059524D02*
X77859580Y80011905D01*
X77859580Y80011905D02*
X77907200Y79964286D01*
X77907200Y79964286D02*
X77954819Y79869048D01*
X77954819Y79869048D02*
X77954819Y79583334D01*
X77954819Y79583334D02*
X77907200Y79488096D01*
X77907200Y79488096D02*
X77859580Y79440477D01*
X76954819Y80964286D02*
X76954819Y80488096D01*
X76954819Y80488096D02*
X77431009Y80440477D01*
X77431009Y80440477D02*
X77383390Y80488096D01*
X77383390Y80488096D02*
X77335771Y80583334D01*
X77335771Y80583334D02*
X77335771Y80821429D01*
X77335771Y80821429D02*
X77383390Y80916667D01*
X77383390Y80916667D02*
X77431009Y80964286D01*
X77431009Y80964286D02*
X77526247Y81011905D01*
X77526247Y81011905D02*
X77764342Y81011905D01*
X77764342Y81011905D02*
X77859580Y80964286D01*
X77859580Y80964286D02*
X77907200Y80916667D01*
X77907200Y80916667D02*
X77954819Y80821429D01*
X77954819Y80821429D02*
X77954819Y80583334D01*
X77954819Y80583334D02*
X77907200Y80488096D01*
X77907200Y80488096D02*
X77859580Y80440477D01*
X77666666Y60335181D02*
X77666666Y59620896D01*
X77666666Y59620896D02*
X77619047Y59478039D01*
X77619047Y59478039D02*
X77523809Y59382800D01*
X77523809Y59382800D02*
X77380952Y59335181D01*
X77380952Y59335181D02*
X77285714Y59335181D01*
X78047619Y60335181D02*
X78666666Y60335181D01*
X78666666Y60335181D02*
X78333333Y59954229D01*
X78333333Y59954229D02*
X78476190Y59954229D01*
X78476190Y59954229D02*
X78571428Y59906610D01*
X78571428Y59906610D02*
X78619047Y59858991D01*
X78619047Y59858991D02*
X78666666Y59763753D01*
X78666666Y59763753D02*
X78666666Y59525658D01*
X78666666Y59525658D02*
X78619047Y59430420D01*
X78619047Y59430420D02*
X78571428Y59382800D01*
X78571428Y59382800D02*
X78476190Y59335181D01*
X78476190Y59335181D02*
X78190476Y59335181D01*
X78190476Y59335181D02*
X78095238Y59382800D01*
X78095238Y59382800D02*
X78047619Y59430420D01*
X9954819Y40937143D02*
X9478628Y40603810D01*
X9954819Y40365715D02*
X8954819Y40365715D01*
X8954819Y40365715D02*
X8954819Y40746667D01*
X8954819Y40746667D02*
X9002438Y40841905D01*
X9002438Y40841905D02*
X9050057Y40889524D01*
X9050057Y40889524D02*
X9145295Y40937143D01*
X9145295Y40937143D02*
X9288152Y40937143D01*
X9288152Y40937143D02*
X9383390Y40889524D01*
X9383390Y40889524D02*
X9431009Y40841905D01*
X9431009Y40841905D02*
X9478628Y40746667D01*
X9478628Y40746667D02*
X9478628Y40365715D01*
X9050057Y41318096D02*
X9002438Y41365715D01*
X9002438Y41365715D02*
X8954819Y41460953D01*
X8954819Y41460953D02*
X8954819Y41699048D01*
X8954819Y41699048D02*
X9002438Y41794286D01*
X9002438Y41794286D02*
X9050057Y41841905D01*
X9050057Y41841905D02*
X9145295Y41889524D01*
X9145295Y41889524D02*
X9240533Y41889524D01*
X9240533Y41889524D02*
X9383390Y41841905D01*
X9383390Y41841905D02*
X9954819Y41270477D01*
X9954819Y41270477D02*
X9954819Y41889524D01*
X9954819Y42365715D02*
X9954819Y42556191D01*
X9954819Y42556191D02*
X9907200Y42651429D01*
X9907200Y42651429D02*
X9859580Y42699048D01*
X9859580Y42699048D02*
X9716723Y42794286D01*
X9716723Y42794286D02*
X9526247Y42841905D01*
X9526247Y42841905D02*
X9145295Y42841905D01*
X9145295Y42841905D02*
X9050057Y42794286D01*
X9050057Y42794286D02*
X9002438Y42746667D01*
X9002438Y42746667D02*
X8954819Y42651429D01*
X8954819Y42651429D02*
X8954819Y42460953D01*
X8954819Y42460953D02*
X9002438Y42365715D01*
X9002438Y42365715D02*
X9050057Y42318096D01*
X9050057Y42318096D02*
X9145295Y42270477D01*
X9145295Y42270477D02*
X9383390Y42270477D01*
X9383390Y42270477D02*
X9478628Y42318096D01*
X9478628Y42318096D02*
X9526247Y42365715D01*
X9526247Y42365715D02*
X9573866Y42460953D01*
X9573866Y42460953D02*
X9573866Y42651429D01*
X9573866Y42651429D02*
X9526247Y42746667D01*
X9526247Y42746667D02*
X9478628Y42794286D01*
X9478628Y42794286D02*
X9383390Y42841905D01*
X11204819Y72857143D02*
X10728628Y72523810D01*
X11204819Y72285715D02*
X10204819Y72285715D01*
X10204819Y72285715D02*
X10204819Y72666667D01*
X10204819Y72666667D02*
X10252438Y72761905D01*
X10252438Y72761905D02*
X10300057Y72809524D01*
X10300057Y72809524D02*
X10395295Y72857143D01*
X10395295Y72857143D02*
X10538152Y72857143D01*
X10538152Y72857143D02*
X10633390Y72809524D01*
X10633390Y72809524D02*
X10681009Y72761905D01*
X10681009Y72761905D02*
X10728628Y72666667D01*
X10728628Y72666667D02*
X10728628Y72285715D01*
X10204819Y73190477D02*
X10204819Y73809524D01*
X10204819Y73809524D02*
X10585771Y73476191D01*
X10585771Y73476191D02*
X10585771Y73619048D01*
X10585771Y73619048D02*
X10633390Y73714286D01*
X10633390Y73714286D02*
X10681009Y73761905D01*
X10681009Y73761905D02*
X10776247Y73809524D01*
X10776247Y73809524D02*
X11014342Y73809524D01*
X11014342Y73809524D02*
X11109580Y73761905D01*
X11109580Y73761905D02*
X11157200Y73714286D01*
X11157200Y73714286D02*
X11204819Y73619048D01*
X11204819Y73619048D02*
X11204819Y73333334D01*
X11204819Y73333334D02*
X11157200Y73238096D01*
X11157200Y73238096D02*
X11109580Y73190477D01*
X10300057Y74190477D02*
X10252438Y74238096D01*
X10252438Y74238096D02*
X10204819Y74333334D01*
X10204819Y74333334D02*
X10204819Y74571429D01*
X10204819Y74571429D02*
X10252438Y74666667D01*
X10252438Y74666667D02*
X10300057Y74714286D01*
X10300057Y74714286D02*
X10395295Y74761905D01*
X10395295Y74761905D02*
X10490533Y74761905D01*
X10490533Y74761905D02*
X10633390Y74714286D01*
X10633390Y74714286D02*
X11204819Y74142858D01*
X11204819Y74142858D02*
X11204819Y74761905D01*
X3988095Y8145181D02*
X3988095Y9145181D01*
X3988095Y8668991D02*
X4559523Y8668991D01*
X4559523Y8145181D02*
X4559523Y9145181D01*
X5559523Y8145181D02*
X4988095Y8145181D01*
X5273809Y8145181D02*
X5273809Y9145181D01*
X5273809Y9145181D02*
X5178571Y9002324D01*
X5178571Y9002324D02*
X5083333Y8907086D01*
X5083333Y8907086D02*
X4988095Y8859467D01*
X71357142Y37545181D02*
X71023809Y38021372D01*
X70785714Y37545181D02*
X70785714Y38545181D01*
X70785714Y38545181D02*
X71166666Y38545181D01*
X71166666Y38545181D02*
X71261904Y38497562D01*
X71261904Y38497562D02*
X71309523Y38449943D01*
X71309523Y38449943D02*
X71357142Y38354705D01*
X71357142Y38354705D02*
X71357142Y38211848D01*
X71357142Y38211848D02*
X71309523Y38116610D01*
X71309523Y38116610D02*
X71261904Y38068991D01*
X71261904Y38068991D02*
X71166666Y38021372D01*
X71166666Y38021372D02*
X70785714Y38021372D01*
X71690476Y38545181D02*
X72309523Y38545181D01*
X72309523Y38545181D02*
X71976190Y38164229D01*
X71976190Y38164229D02*
X72119047Y38164229D01*
X72119047Y38164229D02*
X72214285Y38116610D01*
X72214285Y38116610D02*
X72261904Y38068991D01*
X72261904Y38068991D02*
X72309523Y37973753D01*
X72309523Y37973753D02*
X72309523Y37735658D01*
X72309523Y37735658D02*
X72261904Y37640420D01*
X72261904Y37640420D02*
X72214285Y37592800D01*
X72214285Y37592800D02*
X72119047Y37545181D01*
X72119047Y37545181D02*
X71833333Y37545181D01*
X71833333Y37545181D02*
X71738095Y37592800D01*
X71738095Y37592800D02*
X71690476Y37640420D01*
X73166666Y38211848D02*
X73166666Y37545181D01*
X72928571Y38592800D02*
X72690476Y37878515D01*
X72690476Y37878515D02*
X73309523Y37878515D01*
X1954819Y72687143D02*
X1478628Y72353810D01*
X1954819Y72115715D02*
X954819Y72115715D01*
X954819Y72115715D02*
X954819Y72496667D01*
X954819Y72496667D02*
X1002438Y72591905D01*
X1002438Y72591905D02*
X1050057Y72639524D01*
X1050057Y72639524D02*
X1145295Y72687143D01*
X1145295Y72687143D02*
X1288152Y72687143D01*
X1288152Y72687143D02*
X1383390Y72639524D01*
X1383390Y72639524D02*
X1431009Y72591905D01*
X1431009Y72591905D02*
X1478628Y72496667D01*
X1478628Y72496667D02*
X1478628Y72115715D01*
X1050057Y73068096D02*
X1002438Y73115715D01*
X1002438Y73115715D02*
X954819Y73210953D01*
X954819Y73210953D02*
X954819Y73449048D01*
X954819Y73449048D02*
X1002438Y73544286D01*
X1002438Y73544286D02*
X1050057Y73591905D01*
X1050057Y73591905D02*
X1145295Y73639524D01*
X1145295Y73639524D02*
X1240533Y73639524D01*
X1240533Y73639524D02*
X1383390Y73591905D01*
X1383390Y73591905D02*
X1954819Y73020477D01*
X1954819Y73020477D02*
X1954819Y73639524D01*
X954819Y74496667D02*
X954819Y74306191D01*
X954819Y74306191D02*
X1002438Y74210953D01*
X1002438Y74210953D02*
X1050057Y74163334D01*
X1050057Y74163334D02*
X1192914Y74068096D01*
X1192914Y74068096D02*
X1383390Y74020477D01*
X1383390Y74020477D02*
X1764342Y74020477D01*
X1764342Y74020477D02*
X1859580Y74068096D01*
X1859580Y74068096D02*
X1907200Y74115715D01*
X1907200Y74115715D02*
X1954819Y74210953D01*
X1954819Y74210953D02*
X1954819Y74401429D01*
X1954819Y74401429D02*
X1907200Y74496667D01*
X1907200Y74496667D02*
X1859580Y74544286D01*
X1859580Y74544286D02*
X1764342Y74591905D01*
X1764342Y74591905D02*
X1526247Y74591905D01*
X1526247Y74591905D02*
X1431009Y74544286D01*
X1431009Y74544286D02*
X1383390Y74496667D01*
X1383390Y74496667D02*
X1335771Y74401429D01*
X1335771Y74401429D02*
X1335771Y74210953D01*
X1335771Y74210953D02*
X1383390Y74115715D01*
X1383390Y74115715D02*
X1431009Y74068096D01*
X1431009Y74068096D02*
X1526247Y74020477D01*
X23527142Y3085181D02*
X23193809Y3561372D01*
X22955714Y3085181D02*
X22955714Y4085181D01*
X22955714Y4085181D02*
X23336666Y4085181D01*
X23336666Y4085181D02*
X23431904Y4037562D01*
X23431904Y4037562D02*
X23479523Y3989943D01*
X23479523Y3989943D02*
X23527142Y3894705D01*
X23527142Y3894705D02*
X23527142Y3751848D01*
X23527142Y3751848D02*
X23479523Y3656610D01*
X23479523Y3656610D02*
X23431904Y3608991D01*
X23431904Y3608991D02*
X23336666Y3561372D01*
X23336666Y3561372D02*
X22955714Y3561372D01*
X24479523Y3085181D02*
X23908095Y3085181D01*
X24193809Y3085181D02*
X24193809Y4085181D01*
X24193809Y4085181D02*
X24098571Y3942324D01*
X24098571Y3942324D02*
X24003333Y3847086D01*
X24003333Y3847086D02*
X23908095Y3799467D01*
X24812857Y4085181D02*
X25479523Y4085181D01*
X25479523Y4085181D02*
X25050952Y3085181D01*
X77954819Y46488096D02*
X78764342Y46488096D01*
X78764342Y46488096D02*
X78859580Y46535715D01*
X78859580Y46535715D02*
X78907200Y46583334D01*
X78907200Y46583334D02*
X78954819Y46678572D01*
X78954819Y46678572D02*
X78954819Y46869048D01*
X78954819Y46869048D02*
X78907200Y46964286D01*
X78907200Y46964286D02*
X78859580Y47011905D01*
X78859580Y47011905D02*
X78764342Y47059524D01*
X78764342Y47059524D02*
X77954819Y47059524D01*
X78288152Y47964286D02*
X78954819Y47964286D01*
X77907200Y47726191D02*
X78621485Y47488096D01*
X78621485Y47488096D02*
X78621485Y48107143D01*
X74988095Y8145181D02*
X74988095Y9145181D01*
X74988095Y8668991D02*
X75559523Y8668991D01*
X75559523Y8145181D02*
X75559523Y9145181D01*
X75988095Y9049943D02*
X76035714Y9097562D01*
X76035714Y9097562D02*
X76130952Y9145181D01*
X76130952Y9145181D02*
X76369047Y9145181D01*
X76369047Y9145181D02*
X76464285Y9097562D01*
X76464285Y9097562D02*
X76511904Y9049943D01*
X76511904Y9049943D02*
X76559523Y8954705D01*
X76559523Y8954705D02*
X76559523Y8859467D01*
X76559523Y8859467D02*
X76511904Y8716610D01*
X76511904Y8716610D02*
X75940476Y8145181D01*
X75940476Y8145181D02*
X76559523Y8145181D01*
X24834819Y35757143D02*
X24358628Y35423810D01*
X24834819Y35185715D02*
X23834819Y35185715D01*
X23834819Y35185715D02*
X23834819Y35566667D01*
X23834819Y35566667D02*
X23882438Y35661905D01*
X23882438Y35661905D02*
X23930057Y35709524D01*
X23930057Y35709524D02*
X24025295Y35757143D01*
X24025295Y35757143D02*
X24168152Y35757143D01*
X24168152Y35757143D02*
X24263390Y35709524D01*
X24263390Y35709524D02*
X24311009Y35661905D01*
X24311009Y35661905D02*
X24358628Y35566667D01*
X24358628Y35566667D02*
X24358628Y35185715D01*
X23930057Y36138096D02*
X23882438Y36185715D01*
X23882438Y36185715D02*
X23834819Y36280953D01*
X23834819Y36280953D02*
X23834819Y36519048D01*
X23834819Y36519048D02*
X23882438Y36614286D01*
X23882438Y36614286D02*
X23930057Y36661905D01*
X23930057Y36661905D02*
X24025295Y36709524D01*
X24025295Y36709524D02*
X24120533Y36709524D01*
X24120533Y36709524D02*
X24263390Y36661905D01*
X24263390Y36661905D02*
X24834819Y36090477D01*
X24834819Y36090477D02*
X24834819Y36709524D01*
X23834819Y37042858D02*
X23834819Y37661905D01*
X23834819Y37661905D02*
X24215771Y37328572D01*
X24215771Y37328572D02*
X24215771Y37471429D01*
X24215771Y37471429D02*
X24263390Y37566667D01*
X24263390Y37566667D02*
X24311009Y37614286D01*
X24311009Y37614286D02*
X24406247Y37661905D01*
X24406247Y37661905D02*
X24644342Y37661905D01*
X24644342Y37661905D02*
X24739580Y37614286D01*
X24739580Y37614286D02*
X24787200Y37566667D01*
X24787200Y37566667D02*
X24834819Y37471429D01*
X24834819Y37471429D02*
X24834819Y37185715D01*
X24834819Y37185715D02*
X24787200Y37090477D01*
X24787200Y37090477D02*
X24739580Y37042858D01*
X31238095Y32045181D02*
X31238095Y31235658D01*
X31238095Y31235658D02*
X31285714Y31140420D01*
X31285714Y31140420D02*
X31333333Y31092800D01*
X31333333Y31092800D02*
X31428571Y31045181D01*
X31428571Y31045181D02*
X31619047Y31045181D01*
X31619047Y31045181D02*
X31714285Y31092800D01*
X31714285Y31092800D02*
X31761904Y31140420D01*
X31761904Y31140420D02*
X31809523Y31235658D01*
X31809523Y31235658D02*
X31809523Y32045181D01*
X32238095Y31949943D02*
X32285714Y31997562D01*
X32285714Y31997562D02*
X32380952Y32045181D01*
X32380952Y32045181D02*
X32619047Y32045181D01*
X32619047Y32045181D02*
X32714285Y31997562D01*
X32714285Y31997562D02*
X32761904Y31949943D01*
X32761904Y31949943D02*
X32809523Y31854705D01*
X32809523Y31854705D02*
X32809523Y31759467D01*
X32809523Y31759467D02*
X32761904Y31616610D01*
X32761904Y31616610D02*
X32190476Y31045181D01*
X32190476Y31045181D02*
X32809523Y31045181D01*
X4238095Y98395181D02*
X4238095Y99395181D01*
X4238095Y98918991D02*
X4809523Y98918991D01*
X4809523Y98395181D02*
X4809523Y99395181D01*
X5190476Y99395181D02*
X5809523Y99395181D01*
X5809523Y99395181D02*
X5476190Y99014229D01*
X5476190Y99014229D02*
X5619047Y99014229D01*
X5619047Y99014229D02*
X5714285Y98966610D01*
X5714285Y98966610D02*
X5761904Y98918991D01*
X5761904Y98918991D02*
X5809523Y98823753D01*
X5809523Y98823753D02*
X5809523Y98585658D01*
X5809523Y98585658D02*
X5761904Y98490420D01*
X5761904Y98490420D02*
X5714285Y98442800D01*
X5714285Y98442800D02*
X5619047Y98395181D01*
X5619047Y98395181D02*
X5333333Y98395181D01*
X5333333Y98395181D02*
X5238095Y98442800D01*
X5238095Y98442800D02*
X5190476Y98490420D01*
X38357142Y3205181D02*
X38023809Y3681372D01*
X37785714Y3205181D02*
X37785714Y4205181D01*
X37785714Y4205181D02*
X38166666Y4205181D01*
X38166666Y4205181D02*
X38261904Y4157562D01*
X38261904Y4157562D02*
X38309523Y4109943D01*
X38309523Y4109943D02*
X38357142Y4014705D01*
X38357142Y4014705D02*
X38357142Y3871848D01*
X38357142Y3871848D02*
X38309523Y3776610D01*
X38309523Y3776610D02*
X38261904Y3728991D01*
X38261904Y3728991D02*
X38166666Y3681372D01*
X38166666Y3681372D02*
X37785714Y3681372D01*
X39309523Y3205181D02*
X38738095Y3205181D01*
X39023809Y3205181D02*
X39023809Y4205181D01*
X39023809Y4205181D02*
X38928571Y4062324D01*
X38928571Y4062324D02*
X38833333Y3967086D01*
X38833333Y3967086D02*
X38738095Y3919467D01*
X40166666Y4205181D02*
X39976190Y4205181D01*
X39976190Y4205181D02*
X39880952Y4157562D01*
X39880952Y4157562D02*
X39833333Y4109943D01*
X39833333Y4109943D02*
X39738095Y3967086D01*
X39738095Y3967086D02*
X39690476Y3776610D01*
X39690476Y3776610D02*
X39690476Y3395658D01*
X39690476Y3395658D02*
X39738095Y3300420D01*
X39738095Y3300420D02*
X39785714Y3252800D01*
X39785714Y3252800D02*
X39880952Y3205181D01*
X39880952Y3205181D02*
X40071428Y3205181D01*
X40071428Y3205181D02*
X40166666Y3252800D01*
X40166666Y3252800D02*
X40214285Y3300420D01*
X40214285Y3300420D02*
X40261904Y3395658D01*
X40261904Y3395658D02*
X40261904Y3633753D01*
X40261904Y3633753D02*
X40214285Y3728991D01*
X40214285Y3728991D02*
X40166666Y3776610D01*
X40166666Y3776610D02*
X40071428Y3824229D01*
X40071428Y3824229D02*
X39880952Y3824229D01*
X39880952Y3824229D02*
X39785714Y3776610D01*
X39785714Y3776610D02*
X39738095Y3728991D01*
X39738095Y3728991D02*
X39690476Y3633753D01*
X74488095Y98645181D02*
X74488095Y99645181D01*
X74488095Y99168991D02*
X75059523Y99168991D01*
X75059523Y98645181D02*
X75059523Y99645181D01*
X75964285Y99311848D02*
X75964285Y98645181D01*
X75726190Y99692800D02*
X75488095Y98978515D01*
X75488095Y98978515D02*
X76107142Y98978515D01*
X2681666Y82295181D02*
X2681666Y81580896D01*
X2681666Y81580896D02*
X2634047Y81438039D01*
X2634047Y81438039D02*
X2538809Y81342800D01*
X2538809Y81342800D02*
X2395952Y81295181D01*
X2395952Y81295181D02*
X2300714Y81295181D01*
X3062619Y82295181D02*
X3729285Y82295181D01*
X3729285Y82295181D02*
X3300714Y81295181D01*
X35914761Y92199943D02*
X35819523Y92247562D01*
X35819523Y92247562D02*
X35724285Y92342800D01*
X35724285Y92342800D02*
X35581428Y92485658D01*
X35581428Y92485658D02*
X35486190Y92533277D01*
X35486190Y92533277D02*
X35390952Y92533277D01*
X35438571Y92295181D02*
X35343333Y92342800D01*
X35343333Y92342800D02*
X35248095Y92438039D01*
X35248095Y92438039D02*
X35200476Y92628515D01*
X35200476Y92628515D02*
X35200476Y92961848D01*
X35200476Y92961848D02*
X35248095Y93152324D01*
X35248095Y93152324D02*
X35343333Y93247562D01*
X35343333Y93247562D02*
X35438571Y93295181D01*
X35438571Y93295181D02*
X35629047Y93295181D01*
X35629047Y93295181D02*
X35724285Y93247562D01*
X35724285Y93247562D02*
X35819523Y93152324D01*
X35819523Y93152324D02*
X35867142Y92961848D01*
X35867142Y92961848D02*
X35867142Y92628515D01*
X35867142Y92628515D02*
X35819523Y92438039D01*
X35819523Y92438039D02*
X35724285Y92342800D01*
X35724285Y92342800D02*
X35629047Y92295181D01*
X35629047Y92295181D02*
X35438571Y92295181D01*
X36819523Y92295181D02*
X36248095Y92295181D01*
X36533809Y92295181D02*
X36533809Y93295181D01*
X36533809Y93295181D02*
X36438571Y93152324D01*
X36438571Y93152324D02*
X36343333Y93057086D01*
X36343333Y93057086D02*
X36248095Y93009467D01*
X38687142Y46075181D02*
X38353809Y46551372D01*
X38115714Y46075181D02*
X38115714Y47075181D01*
X38115714Y47075181D02*
X38496666Y47075181D01*
X38496666Y47075181D02*
X38591904Y47027562D01*
X38591904Y47027562D02*
X38639523Y46979943D01*
X38639523Y46979943D02*
X38687142Y46884705D01*
X38687142Y46884705D02*
X38687142Y46741848D01*
X38687142Y46741848D02*
X38639523Y46646610D01*
X38639523Y46646610D02*
X38591904Y46598991D01*
X38591904Y46598991D02*
X38496666Y46551372D01*
X38496666Y46551372D02*
X38115714Y46551372D01*
X39639523Y46075181D02*
X39068095Y46075181D01*
X39353809Y46075181D02*
X39353809Y47075181D01*
X39353809Y47075181D02*
X39258571Y46932324D01*
X39258571Y46932324D02*
X39163333Y46837086D01*
X39163333Y46837086D02*
X39068095Y46789467D01*
X40115714Y46075181D02*
X40306190Y46075181D01*
X40306190Y46075181D02*
X40401428Y46122800D01*
X40401428Y46122800D02*
X40449047Y46170420D01*
X40449047Y46170420D02*
X40544285Y46313277D01*
X40544285Y46313277D02*
X40591904Y46503753D01*
X40591904Y46503753D02*
X40591904Y46884705D01*
X40591904Y46884705D02*
X40544285Y46979943D01*
X40544285Y46979943D02*
X40496666Y47027562D01*
X40496666Y47027562D02*
X40401428Y47075181D01*
X40401428Y47075181D02*
X40210952Y47075181D01*
X40210952Y47075181D02*
X40115714Y47027562D01*
X40115714Y47027562D02*
X40068095Y46979943D01*
X40068095Y46979943D02*
X40020476Y46884705D01*
X40020476Y46884705D02*
X40020476Y46646610D01*
X40020476Y46646610D02*
X40068095Y46551372D01*
X40068095Y46551372D02*
X40115714Y46503753D01*
X40115714Y46503753D02*
X40210952Y46456134D01*
X40210952Y46456134D02*
X40401428Y46456134D01*
X40401428Y46456134D02*
X40496666Y46503753D01*
X40496666Y46503753D02*
X40544285Y46551372D01*
X40544285Y46551372D02*
X40591904Y46646610D01*
X59416666Y98045181D02*
X59416666Y97330896D01*
X59416666Y97330896D02*
X59369047Y97188039D01*
X59369047Y97188039D02*
X59273809Y97092800D01*
X59273809Y97092800D02*
X59130952Y97045181D01*
X59130952Y97045181D02*
X59035714Y97045181D01*
X60035714Y97616610D02*
X59940476Y97664229D01*
X59940476Y97664229D02*
X59892857Y97711848D01*
X59892857Y97711848D02*
X59845238Y97807086D01*
X59845238Y97807086D02*
X59845238Y97854705D01*
X59845238Y97854705D02*
X59892857Y97949943D01*
X59892857Y97949943D02*
X59940476Y97997562D01*
X59940476Y97997562D02*
X60035714Y98045181D01*
X60035714Y98045181D02*
X60226190Y98045181D01*
X60226190Y98045181D02*
X60321428Y97997562D01*
X60321428Y97997562D02*
X60369047Y97949943D01*
X60369047Y97949943D02*
X60416666Y97854705D01*
X60416666Y97854705D02*
X60416666Y97807086D01*
X60416666Y97807086D02*
X60369047Y97711848D01*
X60369047Y97711848D02*
X60321428Y97664229D01*
X60321428Y97664229D02*
X60226190Y97616610D01*
X60226190Y97616610D02*
X60035714Y97616610D01*
X60035714Y97616610D02*
X59940476Y97568991D01*
X59940476Y97568991D02*
X59892857Y97521372D01*
X59892857Y97521372D02*
X59845238Y97426134D01*
X59845238Y97426134D02*
X59845238Y97235658D01*
X59845238Y97235658D02*
X59892857Y97140420D01*
X59892857Y97140420D02*
X59940476Y97092800D01*
X59940476Y97092800D02*
X60035714Y97045181D01*
X60035714Y97045181D02*
X60226190Y97045181D01*
X60226190Y97045181D02*
X60321428Y97092800D01*
X60321428Y97092800D02*
X60369047Y97140420D01*
X60369047Y97140420D02*
X60416666Y97235658D01*
X60416666Y97235658D02*
X60416666Y97426134D01*
X60416666Y97426134D02*
X60369047Y97521372D01*
X60369047Y97521372D02*
X60321428Y97568991D01*
X60321428Y97568991D02*
X60226190Y97616610D01*
X47504819Y27804762D02*
X47028628Y27471429D01*
X47504819Y27233334D02*
X46504819Y27233334D01*
X46504819Y27233334D02*
X46504819Y27614286D01*
X46504819Y27614286D02*
X46552438Y27709524D01*
X46552438Y27709524D02*
X46600057Y27757143D01*
X46600057Y27757143D02*
X46695295Y27804762D01*
X46695295Y27804762D02*
X46838152Y27804762D01*
X46838152Y27804762D02*
X46933390Y27757143D01*
X46933390Y27757143D02*
X46981009Y27709524D01*
X46981009Y27709524D02*
X47028628Y27614286D01*
X47028628Y27614286D02*
X47028628Y27233334D01*
X46504819Y28090477D02*
X47504819Y28423810D01*
X47504819Y28423810D02*
X46504819Y28757143D01*
X46838152Y29519048D02*
X47504819Y29519048D01*
X46457200Y29280953D02*
X47171485Y29042858D01*
X47171485Y29042858D02*
X47171485Y29661905D01*
X7333333Y83640420D02*
X7285714Y83592800D01*
X7285714Y83592800D02*
X7142857Y83545181D01*
X7142857Y83545181D02*
X7047619Y83545181D01*
X7047619Y83545181D02*
X6904762Y83592800D01*
X6904762Y83592800D02*
X6809524Y83688039D01*
X6809524Y83688039D02*
X6761905Y83783277D01*
X6761905Y83783277D02*
X6714286Y83973753D01*
X6714286Y83973753D02*
X6714286Y84116610D01*
X6714286Y84116610D02*
X6761905Y84307086D01*
X6761905Y84307086D02*
X6809524Y84402324D01*
X6809524Y84402324D02*
X6904762Y84497562D01*
X6904762Y84497562D02*
X7047619Y84545181D01*
X7047619Y84545181D02*
X7142857Y84545181D01*
X7142857Y84545181D02*
X7285714Y84497562D01*
X7285714Y84497562D02*
X7333333Y84449943D01*
X7904762Y84116610D02*
X7809524Y84164229D01*
X7809524Y84164229D02*
X7761905Y84211848D01*
X7761905Y84211848D02*
X7714286Y84307086D01*
X7714286Y84307086D02*
X7714286Y84354705D01*
X7714286Y84354705D02*
X7761905Y84449943D01*
X7761905Y84449943D02*
X7809524Y84497562D01*
X7809524Y84497562D02*
X7904762Y84545181D01*
X7904762Y84545181D02*
X8095238Y84545181D01*
X8095238Y84545181D02*
X8190476Y84497562D01*
X8190476Y84497562D02*
X8238095Y84449943D01*
X8238095Y84449943D02*
X8285714Y84354705D01*
X8285714Y84354705D02*
X8285714Y84307086D01*
X8285714Y84307086D02*
X8238095Y84211848D01*
X8238095Y84211848D02*
X8190476Y84164229D01*
X8190476Y84164229D02*
X8095238Y84116610D01*
X8095238Y84116610D02*
X7904762Y84116610D01*
X7904762Y84116610D02*
X7809524Y84068991D01*
X7809524Y84068991D02*
X7761905Y84021372D01*
X7761905Y84021372D02*
X7714286Y83926134D01*
X7714286Y83926134D02*
X7714286Y83735658D01*
X7714286Y83735658D02*
X7761905Y83640420D01*
X7761905Y83640420D02*
X7809524Y83592800D01*
X7809524Y83592800D02*
X7904762Y83545181D01*
X7904762Y83545181D02*
X8095238Y83545181D01*
X8095238Y83545181D02*
X8190476Y83592800D01*
X8190476Y83592800D02*
X8238095Y83640420D01*
X8238095Y83640420D02*
X8285714Y83735658D01*
X8285714Y83735658D02*
X8285714Y83926134D01*
X8285714Y83926134D02*
X8238095Y84021372D01*
X8238095Y84021372D02*
X8190476Y84068991D01*
X8190476Y84068991D02*
X8095238Y84116610D01*
X52928095Y20010181D02*
X52928095Y19200658D01*
X52928095Y19200658D02*
X52975714Y19105420D01*
X52975714Y19105420D02*
X53023333Y19057800D01*
X53023333Y19057800D02*
X53118571Y19010181D01*
X53118571Y19010181D02*
X53309047Y19010181D01*
X53309047Y19010181D02*
X53404285Y19057800D01*
X53404285Y19057800D02*
X53451904Y19105420D01*
X53451904Y19105420D02*
X53499523Y19200658D01*
X53499523Y19200658D02*
X53499523Y20010181D01*
X53880476Y20010181D02*
X54499523Y20010181D01*
X54499523Y20010181D02*
X54166190Y19629229D01*
X54166190Y19629229D02*
X54309047Y19629229D01*
X54309047Y19629229D02*
X54404285Y19581610D01*
X54404285Y19581610D02*
X54451904Y19533991D01*
X54451904Y19533991D02*
X54499523Y19438753D01*
X54499523Y19438753D02*
X54499523Y19200658D01*
X54499523Y19200658D02*
X54451904Y19105420D01*
X54451904Y19105420D02*
X54404285Y19057800D01*
X54404285Y19057800D02*
X54309047Y19010181D01*
X54309047Y19010181D02*
X54023333Y19010181D01*
X54023333Y19010181D02*
X53928095Y19057800D01*
X53928095Y19057800D02*
X53880476Y19105420D01*
X77666666Y66835181D02*
X77666666Y66120896D01*
X77666666Y66120896D02*
X77619047Y65978039D01*
X77619047Y65978039D02*
X77523809Y65882800D01*
X77523809Y65882800D02*
X77380952Y65835181D01*
X77380952Y65835181D02*
X77285714Y65835181D01*
X78095238Y66739943D02*
X78142857Y66787562D01*
X78142857Y66787562D02*
X78238095Y66835181D01*
X78238095Y66835181D02*
X78476190Y66835181D01*
X78476190Y66835181D02*
X78571428Y66787562D01*
X78571428Y66787562D02*
X78619047Y66739943D01*
X78619047Y66739943D02*
X78666666Y66644705D01*
X78666666Y66644705D02*
X78666666Y66549467D01*
X78666666Y66549467D02*
X78619047Y66406610D01*
X78619047Y66406610D02*
X78047619Y65835181D01*
X78047619Y65835181D02*
X78666666Y65835181D01*
X9454819Y72857143D02*
X8978628Y72523810D01*
X9454819Y72285715D02*
X8454819Y72285715D01*
X8454819Y72285715D02*
X8454819Y72666667D01*
X8454819Y72666667D02*
X8502438Y72761905D01*
X8502438Y72761905D02*
X8550057Y72809524D01*
X8550057Y72809524D02*
X8645295Y72857143D01*
X8645295Y72857143D02*
X8788152Y72857143D01*
X8788152Y72857143D02*
X8883390Y72809524D01*
X8883390Y72809524D02*
X8931009Y72761905D01*
X8931009Y72761905D02*
X8978628Y72666667D01*
X8978628Y72666667D02*
X8978628Y72285715D01*
X8550057Y73238096D02*
X8502438Y73285715D01*
X8502438Y73285715D02*
X8454819Y73380953D01*
X8454819Y73380953D02*
X8454819Y73619048D01*
X8454819Y73619048D02*
X8502438Y73714286D01*
X8502438Y73714286D02*
X8550057Y73761905D01*
X8550057Y73761905D02*
X8645295Y73809524D01*
X8645295Y73809524D02*
X8740533Y73809524D01*
X8740533Y73809524D02*
X8883390Y73761905D01*
X8883390Y73761905D02*
X9454819Y73190477D01*
X9454819Y73190477D02*
X9454819Y73809524D01*
X8454819Y74142858D02*
X8454819Y74809524D01*
X8454819Y74809524D02*
X9454819Y74380953D01*
X50594761Y37760181D02*
X50261428Y38236372D01*
X50023333Y37760181D02*
X50023333Y38760181D01*
X50023333Y38760181D02*
X50404285Y38760181D01*
X50404285Y38760181D02*
X50499523Y38712562D01*
X50499523Y38712562D02*
X50547142Y38664943D01*
X50547142Y38664943D02*
X50594761Y38569705D01*
X50594761Y38569705D02*
X50594761Y38426848D01*
X50594761Y38426848D02*
X50547142Y38331610D01*
X50547142Y38331610D02*
X50499523Y38283991D01*
X50499523Y38283991D02*
X50404285Y38236372D01*
X50404285Y38236372D02*
X50023333Y38236372D01*
X50880476Y38760181D02*
X51213809Y37760181D01*
X51213809Y37760181D02*
X51547142Y38760181D01*
X52356666Y38760181D02*
X51880476Y38760181D01*
X51880476Y38760181D02*
X51832857Y38283991D01*
X51832857Y38283991D02*
X51880476Y38331610D01*
X51880476Y38331610D02*
X51975714Y38379229D01*
X51975714Y38379229D02*
X52213809Y38379229D01*
X52213809Y38379229D02*
X52309047Y38331610D01*
X52309047Y38331610D02*
X52356666Y38283991D01*
X52356666Y38283991D02*
X52404285Y38188753D01*
X52404285Y38188753D02*
X52404285Y37950658D01*
X52404285Y37950658D02*
X52356666Y37855420D01*
X52356666Y37855420D02*
X52309047Y37807800D01*
X52309047Y37807800D02*
X52213809Y37760181D01*
X52213809Y37760181D02*
X51975714Y37760181D01*
X51975714Y37760181D02*
X51880476Y37807800D01*
X51880476Y37807800D02*
X51832857Y37855420D01*
X23607142Y45705181D02*
X23273809Y46181372D01*
X23035714Y45705181D02*
X23035714Y46705181D01*
X23035714Y46705181D02*
X23416666Y46705181D01*
X23416666Y46705181D02*
X23511904Y46657562D01*
X23511904Y46657562D02*
X23559523Y46609943D01*
X23559523Y46609943D02*
X23607142Y46514705D01*
X23607142Y46514705D02*
X23607142Y46371848D01*
X23607142Y46371848D02*
X23559523Y46276610D01*
X23559523Y46276610D02*
X23511904Y46228991D01*
X23511904Y46228991D02*
X23416666Y46181372D01*
X23416666Y46181372D02*
X23035714Y46181372D01*
X24559523Y45705181D02*
X23988095Y45705181D01*
X24273809Y45705181D02*
X24273809Y46705181D01*
X24273809Y46705181D02*
X24178571Y46562324D01*
X24178571Y46562324D02*
X24083333Y46467086D01*
X24083333Y46467086D02*
X23988095Y46419467D01*
X25130952Y46276610D02*
X25035714Y46324229D01*
X25035714Y46324229D02*
X24988095Y46371848D01*
X24988095Y46371848D02*
X24940476Y46467086D01*
X24940476Y46467086D02*
X24940476Y46514705D01*
X24940476Y46514705D02*
X24988095Y46609943D01*
X24988095Y46609943D02*
X25035714Y46657562D01*
X25035714Y46657562D02*
X25130952Y46705181D01*
X25130952Y46705181D02*
X25321428Y46705181D01*
X25321428Y46705181D02*
X25416666Y46657562D01*
X25416666Y46657562D02*
X25464285Y46609943D01*
X25464285Y46609943D02*
X25511904Y46514705D01*
X25511904Y46514705D02*
X25511904Y46467086D01*
X25511904Y46467086D02*
X25464285Y46371848D01*
X25464285Y46371848D02*
X25416666Y46324229D01*
X25416666Y46324229D02*
X25321428Y46276610D01*
X25321428Y46276610D02*
X25130952Y46276610D01*
X25130952Y46276610D02*
X25035714Y46228991D01*
X25035714Y46228991D02*
X24988095Y46181372D01*
X24988095Y46181372D02*
X24940476Y46086134D01*
X24940476Y46086134D02*
X24940476Y45895658D01*
X24940476Y45895658D02*
X24988095Y45800420D01*
X24988095Y45800420D02*
X25035714Y45752800D01*
X25035714Y45752800D02*
X25130952Y45705181D01*
X25130952Y45705181D02*
X25321428Y45705181D01*
X25321428Y45705181D02*
X25416666Y45752800D01*
X25416666Y45752800D02*
X25464285Y45800420D01*
X25464285Y45800420D02*
X25511904Y45895658D01*
X25511904Y45895658D02*
X25511904Y46086134D01*
X25511904Y46086134D02*
X25464285Y46181372D01*
X25464285Y46181372D02*
X25416666Y46228991D01*
X25416666Y46228991D02*
X25321428Y46276610D01*
X29574819Y13257143D02*
X29098628Y12923810D01*
X29574819Y12685715D02*
X28574819Y12685715D01*
X28574819Y12685715D02*
X28574819Y13066667D01*
X28574819Y13066667D02*
X28622438Y13161905D01*
X28622438Y13161905D02*
X28670057Y13209524D01*
X28670057Y13209524D02*
X28765295Y13257143D01*
X28765295Y13257143D02*
X28908152Y13257143D01*
X28908152Y13257143D02*
X29003390Y13209524D01*
X29003390Y13209524D02*
X29051009Y13161905D01*
X29051009Y13161905D02*
X29098628Y13066667D01*
X29098628Y13066667D02*
X29098628Y12685715D01*
X28670057Y13638096D02*
X28622438Y13685715D01*
X28622438Y13685715D02*
X28574819Y13780953D01*
X28574819Y13780953D02*
X28574819Y14019048D01*
X28574819Y14019048D02*
X28622438Y14114286D01*
X28622438Y14114286D02*
X28670057Y14161905D01*
X28670057Y14161905D02*
X28765295Y14209524D01*
X28765295Y14209524D02*
X28860533Y14209524D01*
X28860533Y14209524D02*
X29003390Y14161905D01*
X29003390Y14161905D02*
X29574819Y13590477D01*
X29574819Y13590477D02*
X29574819Y14209524D01*
X28670057Y14590477D02*
X28622438Y14638096D01*
X28622438Y14638096D02*
X28574819Y14733334D01*
X28574819Y14733334D02*
X28574819Y14971429D01*
X28574819Y14971429D02*
X28622438Y15066667D01*
X28622438Y15066667D02*
X28670057Y15114286D01*
X28670057Y15114286D02*
X28765295Y15161905D01*
X28765295Y15161905D02*
X28860533Y15161905D01*
X28860533Y15161905D02*
X29003390Y15114286D01*
X29003390Y15114286D02*
X29574819Y14542858D01*
X29574819Y14542858D02*
X29574819Y15161905D01*
X53083333Y50890420D02*
X53035714Y50842800D01*
X53035714Y50842800D02*
X52892857Y50795181D01*
X52892857Y50795181D02*
X52797619Y50795181D01*
X52797619Y50795181D02*
X52654762Y50842800D01*
X52654762Y50842800D02*
X52559524Y50938039D01*
X52559524Y50938039D02*
X52511905Y51033277D01*
X52511905Y51033277D02*
X52464286Y51223753D01*
X52464286Y51223753D02*
X52464286Y51366610D01*
X52464286Y51366610D02*
X52511905Y51557086D01*
X52511905Y51557086D02*
X52559524Y51652324D01*
X52559524Y51652324D02*
X52654762Y51747562D01*
X52654762Y51747562D02*
X52797619Y51795181D01*
X52797619Y51795181D02*
X52892857Y51795181D01*
X52892857Y51795181D02*
X53035714Y51747562D01*
X53035714Y51747562D02*
X53083333Y51699943D01*
X53416667Y51795181D02*
X54035714Y51795181D01*
X54035714Y51795181D02*
X53702381Y51414229D01*
X53702381Y51414229D02*
X53845238Y51414229D01*
X53845238Y51414229D02*
X53940476Y51366610D01*
X53940476Y51366610D02*
X53988095Y51318991D01*
X53988095Y51318991D02*
X54035714Y51223753D01*
X54035714Y51223753D02*
X54035714Y50985658D01*
X54035714Y50985658D02*
X53988095Y50890420D01*
X53988095Y50890420D02*
X53940476Y50842800D01*
X53940476Y50842800D02*
X53845238Y50795181D01*
X53845238Y50795181D02*
X53559524Y50795181D01*
X53559524Y50795181D02*
X53464286Y50842800D01*
X53464286Y50842800D02*
X53416667Y50890420D01*
X39574819Y13187143D02*
X39098628Y12853810D01*
X39574819Y12615715D02*
X38574819Y12615715D01*
X38574819Y12615715D02*
X38574819Y12996667D01*
X38574819Y12996667D02*
X38622438Y13091905D01*
X38622438Y13091905D02*
X38670057Y13139524D01*
X38670057Y13139524D02*
X38765295Y13187143D01*
X38765295Y13187143D02*
X38908152Y13187143D01*
X38908152Y13187143D02*
X39003390Y13139524D01*
X39003390Y13139524D02*
X39051009Y13091905D01*
X39051009Y13091905D02*
X39098628Y12996667D01*
X39098628Y12996667D02*
X39098628Y12615715D01*
X38670057Y13568096D02*
X38622438Y13615715D01*
X38622438Y13615715D02*
X38574819Y13710953D01*
X38574819Y13710953D02*
X38574819Y13949048D01*
X38574819Y13949048D02*
X38622438Y14044286D01*
X38622438Y14044286D02*
X38670057Y14091905D01*
X38670057Y14091905D02*
X38765295Y14139524D01*
X38765295Y14139524D02*
X38860533Y14139524D01*
X38860533Y14139524D02*
X39003390Y14091905D01*
X39003390Y14091905D02*
X39574819Y13520477D01*
X39574819Y13520477D02*
X39574819Y14139524D01*
X39574819Y15091905D02*
X39574819Y14520477D01*
X39574819Y14806191D02*
X38574819Y14806191D01*
X38574819Y14806191D02*
X38717676Y14710953D01*
X38717676Y14710953D02*
X38812914Y14615715D01*
X38812914Y14615715D02*
X38860533Y14520477D01*
X14574819Y40857143D02*
X14098628Y40523810D01*
X14574819Y40285715D02*
X13574819Y40285715D01*
X13574819Y40285715D02*
X13574819Y40666667D01*
X13574819Y40666667D02*
X13622438Y40761905D01*
X13622438Y40761905D02*
X13670057Y40809524D01*
X13670057Y40809524D02*
X13765295Y40857143D01*
X13765295Y40857143D02*
X13908152Y40857143D01*
X13908152Y40857143D02*
X14003390Y40809524D01*
X14003390Y40809524D02*
X14051009Y40761905D01*
X14051009Y40761905D02*
X14098628Y40666667D01*
X14098628Y40666667D02*
X14098628Y40285715D01*
X13574819Y41190477D02*
X13574819Y41809524D01*
X13574819Y41809524D02*
X13955771Y41476191D01*
X13955771Y41476191D02*
X13955771Y41619048D01*
X13955771Y41619048D02*
X14003390Y41714286D01*
X14003390Y41714286D02*
X14051009Y41761905D01*
X14051009Y41761905D02*
X14146247Y41809524D01*
X14146247Y41809524D02*
X14384342Y41809524D01*
X14384342Y41809524D02*
X14479580Y41761905D01*
X14479580Y41761905D02*
X14527200Y41714286D01*
X14527200Y41714286D02*
X14574819Y41619048D01*
X14574819Y41619048D02*
X14574819Y41333334D01*
X14574819Y41333334D02*
X14527200Y41238096D01*
X14527200Y41238096D02*
X14479580Y41190477D01*
X13574819Y42428572D02*
X13574819Y42523810D01*
X13574819Y42523810D02*
X13622438Y42619048D01*
X13622438Y42619048D02*
X13670057Y42666667D01*
X13670057Y42666667D02*
X13765295Y42714286D01*
X13765295Y42714286D02*
X13955771Y42761905D01*
X13955771Y42761905D02*
X14193866Y42761905D01*
X14193866Y42761905D02*
X14384342Y42714286D01*
X14384342Y42714286D02*
X14479580Y42666667D01*
X14479580Y42666667D02*
X14527200Y42619048D01*
X14527200Y42619048D02*
X14574819Y42523810D01*
X14574819Y42523810D02*
X14574819Y42428572D01*
X14574819Y42428572D02*
X14527200Y42333334D01*
X14527200Y42333334D02*
X14479580Y42285715D01*
X14479580Y42285715D02*
X14384342Y42238096D01*
X14384342Y42238096D02*
X14193866Y42190477D01*
X14193866Y42190477D02*
X13955771Y42190477D01*
X13955771Y42190477D02*
X13765295Y42238096D01*
X13765295Y42238096D02*
X13670057Y42285715D01*
X13670057Y42285715D02*
X13622438Y42333334D01*
X13622438Y42333334D02*
X13574819Y42428572D01*
X29416666Y98545181D02*
X29416666Y97830896D01*
X29416666Y97830896D02*
X29369047Y97688039D01*
X29369047Y97688039D02*
X29273809Y97592800D01*
X29273809Y97592800D02*
X29130952Y97545181D01*
X29130952Y97545181D02*
X29035714Y97545181D01*
X30321428Y98545181D02*
X30130952Y98545181D01*
X30130952Y98545181D02*
X30035714Y98497562D01*
X30035714Y98497562D02*
X29988095Y98449943D01*
X29988095Y98449943D02*
X29892857Y98307086D01*
X29892857Y98307086D02*
X29845238Y98116610D01*
X29845238Y98116610D02*
X29845238Y97735658D01*
X29845238Y97735658D02*
X29892857Y97640420D01*
X29892857Y97640420D02*
X29940476Y97592800D01*
X29940476Y97592800D02*
X30035714Y97545181D01*
X30035714Y97545181D02*
X30226190Y97545181D01*
X30226190Y97545181D02*
X30321428Y97592800D01*
X30321428Y97592800D02*
X30369047Y97640420D01*
X30369047Y97640420D02*
X30416666Y97735658D01*
X30416666Y97735658D02*
X30416666Y97973753D01*
X30416666Y97973753D02*
X30369047Y98068991D01*
X30369047Y98068991D02*
X30321428Y98116610D01*
X30321428Y98116610D02*
X30226190Y98164229D01*
X30226190Y98164229D02*
X30035714Y98164229D01*
X30035714Y98164229D02*
X29940476Y98116610D01*
X29940476Y98116610D02*
X29892857Y98068991D01*
X29892857Y98068991D02*
X29845238Y97973753D01*
X24154761Y92199943D02*
X24059523Y92247562D01*
X24059523Y92247562D02*
X23964285Y92342800D01*
X23964285Y92342800D02*
X23821428Y92485658D01*
X23821428Y92485658D02*
X23726190Y92533277D01*
X23726190Y92533277D02*
X23630952Y92533277D01*
X23678571Y92295181D02*
X23583333Y92342800D01*
X23583333Y92342800D02*
X23488095Y92438039D01*
X23488095Y92438039D02*
X23440476Y92628515D01*
X23440476Y92628515D02*
X23440476Y92961848D01*
X23440476Y92961848D02*
X23488095Y93152324D01*
X23488095Y93152324D02*
X23583333Y93247562D01*
X23583333Y93247562D02*
X23678571Y93295181D01*
X23678571Y93295181D02*
X23869047Y93295181D01*
X23869047Y93295181D02*
X23964285Y93247562D01*
X23964285Y93247562D02*
X24059523Y93152324D01*
X24059523Y93152324D02*
X24107142Y92961848D01*
X24107142Y92961848D02*
X24107142Y92628515D01*
X24107142Y92628515D02*
X24059523Y92438039D01*
X24059523Y92438039D02*
X23964285Y92342800D01*
X23964285Y92342800D02*
X23869047Y92295181D01*
X23869047Y92295181D02*
X23678571Y92295181D01*
X24440476Y93295181D02*
X25059523Y93295181D01*
X25059523Y93295181D02*
X24726190Y92914229D01*
X24726190Y92914229D02*
X24869047Y92914229D01*
X24869047Y92914229D02*
X24964285Y92866610D01*
X24964285Y92866610D02*
X25011904Y92818991D01*
X25011904Y92818991D02*
X25059523Y92723753D01*
X25059523Y92723753D02*
X25059523Y92485658D01*
X25059523Y92485658D02*
X25011904Y92390420D01*
X25011904Y92390420D02*
X24964285Y92342800D01*
X24964285Y92342800D02*
X24869047Y92295181D01*
X24869047Y92295181D02*
X24583333Y92295181D01*
X24583333Y92295181D02*
X24488095Y92342800D01*
X24488095Y92342800D02*
X24440476Y92390420D01*
X50583333Y90890420D02*
X50535714Y90842800D01*
X50535714Y90842800D02*
X50392857Y90795181D01*
X50392857Y90795181D02*
X50297619Y90795181D01*
X50297619Y90795181D02*
X50154762Y90842800D01*
X50154762Y90842800D02*
X50059524Y90938039D01*
X50059524Y90938039D02*
X50011905Y91033277D01*
X50011905Y91033277D02*
X49964286Y91223753D01*
X49964286Y91223753D02*
X49964286Y91366610D01*
X49964286Y91366610D02*
X50011905Y91557086D01*
X50011905Y91557086D02*
X50059524Y91652324D01*
X50059524Y91652324D02*
X50154762Y91747562D01*
X50154762Y91747562D02*
X50297619Y91795181D01*
X50297619Y91795181D02*
X50392857Y91795181D01*
X50392857Y91795181D02*
X50535714Y91747562D01*
X50535714Y91747562D02*
X50583333Y91699943D01*
X50964286Y91699943D02*
X51011905Y91747562D01*
X51011905Y91747562D02*
X51107143Y91795181D01*
X51107143Y91795181D02*
X51345238Y91795181D01*
X51345238Y91795181D02*
X51440476Y91747562D01*
X51440476Y91747562D02*
X51488095Y91699943D01*
X51488095Y91699943D02*
X51535714Y91604705D01*
X51535714Y91604705D02*
X51535714Y91509467D01*
X51535714Y91509467D02*
X51488095Y91366610D01*
X51488095Y91366610D02*
X50916667Y90795181D01*
X50916667Y90795181D02*
X51535714Y90795181D01*
X16704819Y28304762D02*
X16228628Y27971429D01*
X16704819Y27733334D02*
X15704819Y27733334D01*
X15704819Y27733334D02*
X15704819Y28114286D01*
X15704819Y28114286D02*
X15752438Y28209524D01*
X15752438Y28209524D02*
X15800057Y28257143D01*
X15800057Y28257143D02*
X15895295Y28304762D01*
X15895295Y28304762D02*
X16038152Y28304762D01*
X16038152Y28304762D02*
X16133390Y28257143D01*
X16133390Y28257143D02*
X16181009Y28209524D01*
X16181009Y28209524D02*
X16228628Y28114286D01*
X16228628Y28114286D02*
X16228628Y27733334D01*
X15704819Y28590477D02*
X16704819Y28923810D01*
X16704819Y28923810D02*
X15704819Y29257143D01*
X15704819Y29495239D02*
X15704819Y30114286D01*
X15704819Y30114286D02*
X16085771Y29780953D01*
X16085771Y29780953D02*
X16085771Y29923810D01*
X16085771Y29923810D02*
X16133390Y30019048D01*
X16133390Y30019048D02*
X16181009Y30066667D01*
X16181009Y30066667D02*
X16276247Y30114286D01*
X16276247Y30114286D02*
X16514342Y30114286D01*
X16514342Y30114286D02*
X16609580Y30066667D01*
X16609580Y30066667D02*
X16657200Y30019048D01*
X16657200Y30019048D02*
X16704819Y29923810D01*
X16704819Y29923810D02*
X16704819Y29638096D01*
X16704819Y29638096D02*
X16657200Y29542858D01*
X16657200Y29542858D02*
X16609580Y29495239D01*
X18454819Y72937143D02*
X17978628Y72603810D01*
X18454819Y72365715D02*
X17454819Y72365715D01*
X17454819Y72365715D02*
X17454819Y72746667D01*
X17454819Y72746667D02*
X17502438Y72841905D01*
X17502438Y72841905D02*
X17550057Y72889524D01*
X17550057Y72889524D02*
X17645295Y72937143D01*
X17645295Y72937143D02*
X17788152Y72937143D01*
X17788152Y72937143D02*
X17883390Y72889524D01*
X17883390Y72889524D02*
X17931009Y72841905D01*
X17931009Y72841905D02*
X17978628Y72746667D01*
X17978628Y72746667D02*
X17978628Y72365715D01*
X17454819Y73270477D02*
X17454819Y73889524D01*
X17454819Y73889524D02*
X17835771Y73556191D01*
X17835771Y73556191D02*
X17835771Y73699048D01*
X17835771Y73699048D02*
X17883390Y73794286D01*
X17883390Y73794286D02*
X17931009Y73841905D01*
X17931009Y73841905D02*
X18026247Y73889524D01*
X18026247Y73889524D02*
X18264342Y73889524D01*
X18264342Y73889524D02*
X18359580Y73841905D01*
X18359580Y73841905D02*
X18407200Y73794286D01*
X18407200Y73794286D02*
X18454819Y73699048D01*
X18454819Y73699048D02*
X18454819Y73413334D01*
X18454819Y73413334D02*
X18407200Y73318096D01*
X18407200Y73318096D02*
X18359580Y73270477D01*
X18454819Y74841905D02*
X18454819Y74270477D01*
X18454819Y74556191D02*
X17454819Y74556191D01*
X17454819Y74556191D02*
X17597676Y74460953D01*
X17597676Y74460953D02*
X17692914Y74365715D01*
X17692914Y74365715D02*
X17740533Y74270477D01*
X75607142Y33045181D02*
X75273809Y33521372D01*
X75035714Y33045181D02*
X75035714Y34045181D01*
X75035714Y34045181D02*
X75416666Y34045181D01*
X75416666Y34045181D02*
X75511904Y33997562D01*
X75511904Y33997562D02*
X75559523Y33949943D01*
X75559523Y33949943D02*
X75607142Y33854705D01*
X75607142Y33854705D02*
X75607142Y33711848D01*
X75607142Y33711848D02*
X75559523Y33616610D01*
X75559523Y33616610D02*
X75511904Y33568991D01*
X75511904Y33568991D02*
X75416666Y33521372D01*
X75416666Y33521372D02*
X75035714Y33521372D01*
X75940476Y34045181D02*
X76559523Y34045181D01*
X76559523Y34045181D02*
X76226190Y33664229D01*
X76226190Y33664229D02*
X76369047Y33664229D01*
X76369047Y33664229D02*
X76464285Y33616610D01*
X76464285Y33616610D02*
X76511904Y33568991D01*
X76511904Y33568991D02*
X76559523Y33473753D01*
X76559523Y33473753D02*
X76559523Y33235658D01*
X76559523Y33235658D02*
X76511904Y33140420D01*
X76511904Y33140420D02*
X76464285Y33092800D01*
X76464285Y33092800D02*
X76369047Y33045181D01*
X76369047Y33045181D02*
X76083333Y33045181D01*
X76083333Y33045181D02*
X75988095Y33092800D01*
X75988095Y33092800D02*
X75940476Y33140420D01*
X76892857Y34045181D02*
X77511904Y34045181D01*
X77511904Y34045181D02*
X77178571Y33664229D01*
X77178571Y33664229D02*
X77321428Y33664229D01*
X77321428Y33664229D02*
X77416666Y33616610D01*
X77416666Y33616610D02*
X77464285Y33568991D01*
X77464285Y33568991D02*
X77511904Y33473753D01*
X77511904Y33473753D02*
X77511904Y33235658D01*
X77511904Y33235658D02*
X77464285Y33140420D01*
X77464285Y33140420D02*
X77416666Y33092800D01*
X77416666Y33092800D02*
X77321428Y33045181D01*
X77321428Y33045181D02*
X77035714Y33045181D01*
X77035714Y33045181D02*
X76940476Y33092800D01*
X76940476Y33092800D02*
X76892857Y33140420D01*
X6511905Y93445181D02*
X6511905Y94445181D01*
X6511905Y94445181D02*
X6892857Y94445181D01*
X6892857Y94445181D02*
X6988095Y94397562D01*
X6988095Y94397562D02*
X7035714Y94349943D01*
X7035714Y94349943D02*
X7083333Y94254705D01*
X7083333Y94254705D02*
X7083333Y94111848D01*
X7083333Y94111848D02*
X7035714Y94016610D01*
X7035714Y94016610D02*
X6988095Y93968991D01*
X6988095Y93968991D02*
X6892857Y93921372D01*
X6892857Y93921372D02*
X6511905Y93921372D01*
X8083333Y93445181D02*
X7750000Y93921372D01*
X7511905Y93445181D02*
X7511905Y94445181D01*
X7511905Y94445181D02*
X7892857Y94445181D01*
X7892857Y94445181D02*
X7988095Y94397562D01*
X7988095Y94397562D02*
X8035714Y94349943D01*
X8035714Y94349943D02*
X8083333Y94254705D01*
X8083333Y94254705D02*
X8083333Y94111848D01*
X8083333Y94111848D02*
X8035714Y94016610D01*
X8035714Y94016610D02*
X7988095Y93968991D01*
X7988095Y93968991D02*
X7892857Y93921372D01*
X7892857Y93921372D02*
X7511905Y93921372D01*
X9035714Y93445181D02*
X8464286Y93445181D01*
X8750000Y93445181D02*
X8750000Y94445181D01*
X8750000Y94445181D02*
X8654762Y94302324D01*
X8654762Y94302324D02*
X8559524Y94207086D01*
X8559524Y94207086D02*
X8464286Y94159467D01*
X53083333Y47890420D02*
X53035714Y47842800D01*
X53035714Y47842800D02*
X52892857Y47795181D01*
X52892857Y47795181D02*
X52797619Y47795181D01*
X52797619Y47795181D02*
X52654762Y47842800D01*
X52654762Y47842800D02*
X52559524Y47938039D01*
X52559524Y47938039D02*
X52511905Y48033277D01*
X52511905Y48033277D02*
X52464286Y48223753D01*
X52464286Y48223753D02*
X52464286Y48366610D01*
X52464286Y48366610D02*
X52511905Y48557086D01*
X52511905Y48557086D02*
X52559524Y48652324D01*
X52559524Y48652324D02*
X52654762Y48747562D01*
X52654762Y48747562D02*
X52797619Y48795181D01*
X52797619Y48795181D02*
X52892857Y48795181D01*
X52892857Y48795181D02*
X53035714Y48747562D01*
X53035714Y48747562D02*
X53083333Y48699943D01*
X53940476Y48461848D02*
X53940476Y47795181D01*
X53702381Y48842800D02*
X53464286Y48128515D01*
X53464286Y48128515D02*
X54083333Y48128515D01*
X62937142Y39075181D02*
X62603809Y39551372D01*
X62365714Y39075181D02*
X62365714Y40075181D01*
X62365714Y40075181D02*
X62746666Y40075181D01*
X62746666Y40075181D02*
X62841904Y40027562D01*
X62841904Y40027562D02*
X62889523Y39979943D01*
X62889523Y39979943D02*
X62937142Y39884705D01*
X62937142Y39884705D02*
X62937142Y39741848D01*
X62937142Y39741848D02*
X62889523Y39646610D01*
X62889523Y39646610D02*
X62841904Y39598991D01*
X62841904Y39598991D02*
X62746666Y39551372D01*
X62746666Y39551372D02*
X62365714Y39551372D01*
X63318095Y39979943D02*
X63365714Y40027562D01*
X63365714Y40027562D02*
X63460952Y40075181D01*
X63460952Y40075181D02*
X63699047Y40075181D01*
X63699047Y40075181D02*
X63794285Y40027562D01*
X63794285Y40027562D02*
X63841904Y39979943D01*
X63841904Y39979943D02*
X63889523Y39884705D01*
X63889523Y39884705D02*
X63889523Y39789467D01*
X63889523Y39789467D02*
X63841904Y39646610D01*
X63841904Y39646610D02*
X63270476Y39075181D01*
X63270476Y39075181D02*
X63889523Y39075181D01*
X64508571Y40075181D02*
X64603809Y40075181D01*
X64603809Y40075181D02*
X64699047Y40027562D01*
X64699047Y40027562D02*
X64746666Y39979943D01*
X64746666Y39979943D02*
X64794285Y39884705D01*
X64794285Y39884705D02*
X64841904Y39694229D01*
X64841904Y39694229D02*
X64841904Y39456134D01*
X64841904Y39456134D02*
X64794285Y39265658D01*
X64794285Y39265658D02*
X64746666Y39170420D01*
X64746666Y39170420D02*
X64699047Y39122800D01*
X64699047Y39122800D02*
X64603809Y39075181D01*
X64603809Y39075181D02*
X64508571Y39075181D01*
X64508571Y39075181D02*
X64413333Y39122800D01*
X64413333Y39122800D02*
X64365714Y39170420D01*
X64365714Y39170420D02*
X64318095Y39265658D01*
X64318095Y39265658D02*
X64270476Y39456134D01*
X64270476Y39456134D02*
X64270476Y39694229D01*
X64270476Y39694229D02*
X64318095Y39884705D01*
X64318095Y39884705D02*
X64365714Y39979943D01*
X64365714Y39979943D02*
X64413333Y40027562D01*
X64413333Y40027562D02*
X64508571Y40075181D01*
X34834819Y35597143D02*
X34358628Y35263810D01*
X34834819Y35025715D02*
X33834819Y35025715D01*
X33834819Y35025715D02*
X33834819Y35406667D01*
X33834819Y35406667D02*
X33882438Y35501905D01*
X33882438Y35501905D02*
X33930057Y35549524D01*
X33930057Y35549524D02*
X34025295Y35597143D01*
X34025295Y35597143D02*
X34168152Y35597143D01*
X34168152Y35597143D02*
X34263390Y35549524D01*
X34263390Y35549524D02*
X34311009Y35501905D01*
X34311009Y35501905D02*
X34358628Y35406667D01*
X34358628Y35406667D02*
X34358628Y35025715D01*
X33930057Y35978096D02*
X33882438Y36025715D01*
X33882438Y36025715D02*
X33834819Y36120953D01*
X33834819Y36120953D02*
X33834819Y36359048D01*
X33834819Y36359048D02*
X33882438Y36454286D01*
X33882438Y36454286D02*
X33930057Y36501905D01*
X33930057Y36501905D02*
X34025295Y36549524D01*
X34025295Y36549524D02*
X34120533Y36549524D01*
X34120533Y36549524D02*
X34263390Y36501905D01*
X34263390Y36501905D02*
X34834819Y35930477D01*
X34834819Y35930477D02*
X34834819Y36549524D01*
X34168152Y37406667D02*
X34834819Y37406667D01*
X33787200Y37168572D02*
X34501485Y36930477D01*
X34501485Y36930477D02*
X34501485Y37549524D01*
X73238095Y72295181D02*
X73238095Y71485658D01*
X73238095Y71485658D02*
X73285714Y71390420D01*
X73285714Y71390420D02*
X73333333Y71342800D01*
X73333333Y71342800D02*
X73428571Y71295181D01*
X73428571Y71295181D02*
X73619047Y71295181D01*
X73619047Y71295181D02*
X73714285Y71342800D01*
X73714285Y71342800D02*
X73761904Y71390420D01*
X73761904Y71390420D02*
X73809523Y71485658D01*
X73809523Y71485658D02*
X73809523Y72295181D01*
X74809523Y71295181D02*
X74238095Y71295181D01*
X74523809Y71295181D02*
X74523809Y72295181D01*
X74523809Y72295181D02*
X74428571Y72152324D01*
X74428571Y72152324D02*
X74333333Y72057086D01*
X74333333Y72057086D02*
X74238095Y72009467D01*
X16904819Y18984762D02*
X16428628Y18651429D01*
X16904819Y18413334D02*
X15904819Y18413334D01*
X15904819Y18413334D02*
X15904819Y18794286D01*
X15904819Y18794286D02*
X15952438Y18889524D01*
X15952438Y18889524D02*
X16000057Y18937143D01*
X16000057Y18937143D02*
X16095295Y18984762D01*
X16095295Y18984762D02*
X16238152Y18984762D01*
X16238152Y18984762D02*
X16333390Y18937143D01*
X16333390Y18937143D02*
X16381009Y18889524D01*
X16381009Y18889524D02*
X16428628Y18794286D01*
X16428628Y18794286D02*
X16428628Y18413334D01*
X15904819Y19270477D02*
X16904819Y19603810D01*
X16904819Y19603810D02*
X15904819Y19937143D01*
X16000057Y20222858D02*
X15952438Y20270477D01*
X15952438Y20270477D02*
X15904819Y20365715D01*
X15904819Y20365715D02*
X15904819Y20603810D01*
X15904819Y20603810D02*
X15952438Y20699048D01*
X15952438Y20699048D02*
X16000057Y20746667D01*
X16000057Y20746667D02*
X16095295Y20794286D01*
X16095295Y20794286D02*
X16190533Y20794286D01*
X16190533Y20794286D02*
X16333390Y20746667D01*
X16333390Y20746667D02*
X16904819Y20175239D01*
X16904819Y20175239D02*
X16904819Y20794286D01*
D12*
%TO.C,C7*%
X58870000Y40880000D02*
X58070000Y40880000D01*
X58870000Y50120000D02*
X58870000Y40880000D01*
X58070000Y50120000D02*
X58870000Y50120000D01*
X56930000Y40880000D02*
X56130000Y40880000D01*
X56130000Y40880000D02*
X56130000Y50120000D01*
X56130000Y50120000D02*
X56930000Y50120000D01*
%TO.C,R25*%
X61000000Y32870000D02*
X61000000Y32100000D01*
X61000000Y24790000D02*
X61000000Y25560000D01*
X62370000Y32100000D02*
X59630000Y32100000D01*
X59630000Y25560000D01*
X62370000Y25560000D01*
X62370000Y32100000D01*
%TO.C,C1*%
X40380000Y95620000D02*
X49620000Y95620000D01*
X40380000Y94820000D02*
X40380000Y95620000D01*
X40380000Y92880000D02*
X40380000Y93680000D01*
X49620000Y95620000D02*
X49620000Y94820000D01*
X49620000Y93680000D02*
X49620000Y92880000D01*
X49620000Y92880000D02*
X40380000Y92880000D01*
%TO.C,C5*%
X13130000Y95120000D02*
X13930000Y95120000D01*
X13130000Y85880000D02*
X13130000Y95120000D01*
X13930000Y85880000D02*
X13130000Y85880000D01*
X15070000Y95120000D02*
X15870000Y95120000D01*
X15870000Y95120000D02*
X15870000Y85880000D01*
X15870000Y85880000D02*
X15070000Y85880000D01*
%TO.C,J5*%
X6120000Y21190000D02*
X6120000Y31460000D01*
X8880000Y31460000D02*
X6120000Y31460000D01*
X8880000Y21190000D02*
X6120000Y21190000D01*
X8880000Y21190000D02*
X8880000Y31460000D01*
X8880000Y19920000D02*
X8880000Y18540000D01*
X8880000Y18540000D02*
X7500000Y18540000D01*
%TO.C,C6*%
X68130000Y93620000D02*
X77370000Y93620000D01*
X68130000Y92820000D02*
X68130000Y93620000D01*
X68130000Y90880000D02*
X68130000Y91680000D01*
X77370000Y93620000D02*
X77370000Y92820000D01*
X77370000Y91680000D02*
X77370000Y90880000D01*
X77370000Y90880000D02*
X68130000Y90880000D01*
%TO.C,AFF1*%
X2840000Y51865000D02*
X2840000Y63295000D01*
X3950000Y47945000D02*
X15550000Y47945000D01*
X4250000Y52580000D02*
X11250000Y52580000D01*
X5250000Y57580000D02*
X4250000Y52580000D01*
X6250000Y62580000D02*
X5250000Y57580000D01*
X6250000Y62580000D02*
X13250000Y62580000D01*
X11250000Y52580000D02*
X12250000Y57580000D01*
X12250000Y57580000D02*
X5250000Y57580000D01*
X13250000Y62580000D02*
X12250000Y57580000D01*
X15550000Y67215000D02*
X2950000Y67215000D01*
X15660000Y51865000D02*
X15660000Y63295000D01*
X13697214Y52580000D02*
G75*
G02*
X12802786Y52580000I-447214J0D01*
G01*
X12802786Y52580000D02*
G75*
G02*
X13697214Y52580000I447214J0D01*
G01*
%TO.C,RV1*%
X41200000Y22355000D02*
X41200000Y23575000D01*
X41200000Y22355000D02*
X41640000Y22355000D01*
X41200000Y15045000D02*
X41200000Y13825000D01*
X41200000Y15045000D02*
X41640000Y15045000D01*
X41200000Y13825000D02*
X46250000Y13825000D01*
X41640000Y15045000D02*
X41640000Y22355000D01*
X46250000Y23575000D02*
X41200000Y23575000D01*
X46250000Y13825000D02*
X46250000Y23575000D01*
X41350000Y16160000D02*
X40850000Y15710000D01*
X40850000Y16610000D01*
X41350000Y16160000D01*
G36*
X41350000Y16160000D02*
G01*
X40850000Y15710000D01*
X40850000Y16610000D01*
X41350000Y16160000D01*
G37*
%TO.C,R28*%
X4250000Y45540000D02*
X4250000Y44770000D01*
X4250000Y37460000D02*
X4250000Y38230000D01*
X5620000Y44770000D02*
X2880000Y44770000D01*
X2880000Y38230000D01*
X5620000Y38230000D01*
X5620000Y44770000D01*
%TO.C,Q2*%
X32200000Y91900000D02*
X28350000Y91900000D01*
X32200000Y91900000D02*
G75*
G02*
X28311389Y91890122I-1940000J-1700000D01*
G01*
%TO.C,R35*%
X75250000Y84120000D02*
X75250000Y83350000D01*
X75250000Y76040000D02*
X75250000Y76810000D01*
X73880000Y76810000D02*
X76620000Y76810000D01*
X76620000Y83350000D01*
X73880000Y83350000D01*
X73880000Y76810000D01*
%TO.C,J3*%
X74120000Y62670000D02*
X75500000Y62670000D01*
X74120000Y61290000D02*
X74120000Y62670000D01*
X74120000Y60020000D02*
X74120000Y57370000D01*
X74120000Y60020000D02*
X76880000Y60020000D01*
X74120000Y57370000D02*
X76880000Y57370000D01*
X76880000Y60020000D02*
X76880000Y57370000D01*
%TO.C,R29*%
X7250000Y45620000D02*
X7250000Y44850000D01*
X7250000Y37540000D02*
X7250000Y38310000D01*
X8620000Y44850000D02*
X5880000Y44850000D01*
X5880000Y38310000D01*
X8620000Y38310000D01*
X8620000Y44850000D01*
%TO.C,R32*%
X12750000Y77540000D02*
X12750000Y76770000D01*
X12750000Y69460000D02*
X12750000Y70230000D01*
X11380000Y70230000D02*
X14120000Y70230000D01*
X14120000Y76770000D01*
X11380000Y76770000D01*
X11380000Y70230000D01*
%TO.C,R34*%
X67040000Y40500000D02*
X67810000Y40500000D01*
X75120000Y40500000D02*
X74350000Y40500000D01*
X74350000Y39130000D02*
X67810000Y39130000D01*
X67810000Y41870000D01*
X74350000Y41870000D01*
X74350000Y39130000D01*
%TO.C,R26*%
X3750000Y77540000D02*
X3750000Y76770000D01*
X3750000Y69460000D02*
X3750000Y70230000D01*
X2380000Y70230000D02*
X5120000Y70230000D01*
X5120000Y76770000D01*
X2380000Y76770000D01*
X2380000Y70230000D01*
%TO.C,R17*%
X20130000Y5910000D02*
X20900000Y5910000D01*
X28210000Y5910000D02*
X27440000Y5910000D01*
X27440000Y4540000D02*
X20900000Y4540000D01*
X20900000Y7280000D01*
X27440000Y7280000D01*
X27440000Y4540000D01*
%TO.C,U4*%
X77580000Y46190000D02*
G75*
G02*
X77580000Y48190000I0J1000000D01*
G01*
X77580000Y44540000D02*
X77580000Y46190000D01*
X77580000Y48190000D02*
X77580000Y49840000D01*
X77580000Y49840000D02*
X59680000Y49840000D01*
X59680000Y44540000D02*
X77580000Y44540000D01*
X59680000Y49840000D02*
X59680000Y44540000D01*
%TO.C,R23*%
X26750000Y40440000D02*
X26750000Y39670000D01*
X26750000Y32360000D02*
X26750000Y33130000D01*
X25380000Y33130000D02*
X28120000Y33130000D01*
X28120000Y39670000D01*
X25380000Y39670000D01*
X25380000Y33130000D01*
%TO.C,U2*%
X22680000Y27780000D02*
X22680000Y22480000D01*
X22680000Y22480000D02*
X40580000Y22480000D01*
X40580000Y27780000D02*
X22680000Y27780000D01*
X40580000Y26130000D02*
X40580000Y27780000D01*
X40580000Y22480000D02*
X40580000Y24130000D01*
X40580000Y24130000D02*
G75*
G02*
X40580000Y26130000I0J1000000D01*
G01*
%TO.C,R16*%
X35040000Y5910000D02*
X35810000Y5910000D01*
X43120000Y5910000D02*
X42350000Y5910000D01*
X35810000Y7280000D02*
X42350000Y7280000D01*
X42350000Y4540000D01*
X35810000Y4540000D01*
X35810000Y7280000D01*
%TO.C,J7*%
X4345000Y80370000D02*
X4345000Y81750000D01*
X5725000Y80370000D02*
X4345000Y80370000D01*
X6995000Y83130000D02*
X9645000Y83130000D01*
X6995000Y80370000D02*
X6995000Y83130000D01*
X6995000Y80370000D02*
X9645000Y80370000D01*
X9645000Y80370000D02*
X9645000Y83130000D01*
%TO.C,Q1*%
X37950000Y91900000D02*
X34100000Y91900000D01*
X37950000Y91900000D02*
G75*
G02*
X34061389Y91890122I-1940000J-1700000D01*
G01*
%TO.C,R19*%
X35290000Y44160000D02*
X36060000Y44160000D01*
X43370000Y44160000D02*
X42600000Y44160000D01*
X36060000Y45530000D02*
X42600000Y45530000D01*
X42600000Y42790000D01*
X36060000Y42790000D01*
X36060000Y45530000D01*
%TO.C,J8*%
X53240000Y94517500D02*
X53240000Y92697500D01*
X63200000Y92697500D02*
X53240000Y92697500D01*
X66760000Y94517500D02*
X66760000Y92697500D01*
X66760000Y92697500D02*
X63800000Y92697500D01*
X63840000Y92227500D02*
X63160000Y92227500D01*
X63500000Y92697500D01*
X63840000Y92227500D01*
G36*
X63840000Y92227500D02*
G01*
X63160000Y92227500D01*
X63500000Y92697500D01*
X63840000Y92227500D01*
G37*
%TO.C,RV4*%
X41250000Y33735000D02*
X41250000Y23985000D01*
X41250000Y23985000D02*
X46300000Y23985000D01*
X45860000Y32515000D02*
X45860000Y25205000D01*
X46300000Y33735000D02*
X41250000Y33735000D01*
X46300000Y32515000D02*
X45860000Y32515000D01*
X46300000Y32515000D02*
X46300000Y33735000D01*
X46300000Y25205000D02*
X45860000Y25205000D01*
X46300000Y25205000D02*
X46300000Y23985000D01*
X46650000Y30950000D02*
X46150000Y31400000D01*
X46650000Y31850000D01*
X46650000Y30950000D01*
G36*
X46650000Y30950000D02*
G01*
X46150000Y31400000D01*
X46650000Y31850000D01*
X46650000Y30950000D01*
G37*
%TO.C,C8*%
X3130000Y87620000D02*
X12370000Y87620000D01*
X3130000Y86820000D02*
X3130000Y87620000D01*
X3130000Y84880000D02*
X3130000Y85680000D01*
X12370000Y87620000D02*
X12370000Y86820000D01*
X12370000Y85680000D02*
X12370000Y84880000D01*
X12370000Y84880000D02*
X3130000Y84880000D01*
%TO.C,U3*%
X48550000Y28120000D02*
X48550000Y26470000D01*
X48550000Y24470000D02*
X48550000Y22820000D01*
X48550000Y22820000D02*
X58830000Y22820000D01*
X58830000Y28120000D02*
X48550000Y28120000D01*
X58830000Y22820000D02*
X58830000Y28120000D01*
X48550000Y26470000D02*
G75*
G02*
X48550000Y24470000I0J-1000000D01*
G01*
%TO.C,J2*%
X74120000Y69170000D02*
X75500000Y69170000D01*
X74120000Y67790000D02*
X74120000Y69170000D01*
X74120000Y66520000D02*
X74120000Y63870000D01*
X74120000Y66520000D02*
X76880000Y66520000D01*
X74120000Y63870000D02*
X76880000Y63870000D01*
X76880000Y66520000D02*
X76880000Y63870000D01*
%TO.C,R27*%
X6750000Y77540000D02*
X6750000Y76770000D01*
X6750000Y69460000D02*
X6750000Y70230000D01*
X5380000Y70230000D02*
X8120000Y70230000D01*
X8120000Y76770000D01*
X5380000Y76770000D01*
X5380000Y70230000D01*
%TO.C,RV5*%
X47335000Y36410000D02*
X47335000Y31360000D01*
X48555000Y31360000D02*
X47335000Y31360000D01*
X48555000Y31360000D02*
X48555000Y31800000D01*
X55865000Y31800000D02*
X48555000Y31800000D01*
X55865000Y31360000D02*
X55865000Y31800000D01*
X55865000Y31360000D02*
X57085000Y31360000D01*
X57085000Y36410000D02*
X47335000Y36410000D01*
X57085000Y31360000D02*
X57085000Y36410000D01*
X55200000Y31010000D02*
X54300000Y31010000D01*
X54750000Y31510000D01*
X55200000Y31010000D01*
G36*
X55200000Y31010000D02*
G01*
X54300000Y31010000D01*
X54750000Y31510000D01*
X55200000Y31010000D01*
G37*
%TO.C,R18*%
X20290000Y44160000D02*
X21060000Y44160000D01*
X28370000Y44160000D02*
X27600000Y44160000D01*
X27600000Y42790000D02*
X21060000Y42790000D01*
X21060000Y45530000D01*
X27600000Y45530000D01*
X27600000Y42790000D01*
%TO.C,R22*%
X26750000Y17940000D02*
X26750000Y17170000D01*
X26750000Y9860000D02*
X26750000Y10630000D01*
X28120000Y17170000D02*
X25380000Y17170000D01*
X25380000Y10630000D01*
X28120000Y10630000D01*
X28120000Y17170000D01*
%TO.C,C3*%
X42380000Y52620000D02*
X51620000Y52620000D01*
X42380000Y51820000D02*
X42380000Y52620000D01*
X42380000Y49880000D02*
X42380000Y50680000D01*
X51620000Y52620000D02*
X51620000Y51820000D01*
X51620000Y50680000D02*
X51620000Y49880000D01*
X51620000Y49880000D02*
X42380000Y49880000D01*
%TO.C,R21*%
X36750000Y17870000D02*
X36750000Y17100000D01*
X36750000Y9790000D02*
X36750000Y10560000D01*
X38120000Y17100000D02*
X35380000Y17100000D01*
X35380000Y10560000D01*
X38120000Y10560000D01*
X38120000Y17100000D01*
%TO.C,R30*%
X11750000Y45540000D02*
X11750000Y44770000D01*
X11750000Y37460000D02*
X11750000Y38230000D01*
X13120000Y44770000D02*
X10380000Y44770000D01*
X10380000Y38230000D01*
X13120000Y38230000D01*
X13120000Y44770000D01*
%TO.C,J6*%
X24810000Y96880000D02*
X24810000Y94120000D01*
X32540000Y96880000D02*
X24810000Y96880000D01*
X32540000Y96880000D02*
X32540000Y94120000D01*
X32540000Y94120000D02*
X24810000Y94120000D01*
X33810000Y96880000D02*
X35190000Y96880000D01*
X35190000Y96880000D02*
X35190000Y95500000D01*
%TO.C,Q3*%
X26290000Y91950000D02*
X22440000Y91950000D01*
X26290000Y91950000D02*
G75*
G02*
X22401389Y91940122I-1940000J-1700000D01*
G01*
%TO.C,C2*%
X40380000Y92620000D02*
X49620000Y92620000D01*
X40380000Y91820000D02*
X40380000Y92620000D01*
X40380000Y89880000D02*
X40380000Y90680000D01*
X49620000Y92620000D02*
X49620000Y91820000D01*
X49620000Y90680000D02*
X49620000Y89880000D01*
X49620000Y89880000D02*
X40380000Y89880000D01*
%TO.C,RV3*%
X17250000Y34235000D02*
X17250000Y24485000D01*
X17250000Y24485000D02*
X22300000Y24485000D01*
X21860000Y33015000D02*
X21860000Y25705000D01*
X22300000Y34235000D02*
X17250000Y34235000D01*
X22300000Y33015000D02*
X21860000Y33015000D01*
X22300000Y33015000D02*
X22300000Y34235000D01*
X22300000Y25705000D02*
X21860000Y25705000D01*
X22300000Y25705000D02*
X22300000Y24485000D01*
X22650000Y31450000D02*
X22150000Y31900000D01*
X22650000Y32350000D01*
X22650000Y31450000D01*
G36*
X22650000Y31450000D02*
G01*
X22150000Y31900000D01*
X22650000Y32350000D01*
X22650000Y31450000D01*
G37*
%TO.C,R31*%
X15750000Y77540000D02*
X15750000Y76770000D01*
X15750000Y69460000D02*
X15750000Y70230000D01*
X14380000Y70230000D02*
X17120000Y70230000D01*
X17120000Y76770000D01*
X14380000Y76770000D01*
X14380000Y70230000D01*
%TO.C,R33*%
X64710000Y33500000D02*
X65480000Y33500000D01*
X72790000Y33500000D02*
X72020000Y33500000D01*
X72020000Y32130000D02*
X65480000Y32130000D01*
X65480000Y34870000D01*
X72020000Y34870000D01*
X72020000Y32130000D01*
%TO.C,PR1*%
X2640000Y93060000D02*
X12860000Y93060000D01*
X2640000Y91680000D02*
X12860000Y91680000D01*
X2640000Y88440000D02*
X2640000Y93060000D01*
X5900000Y93060000D02*
X5900000Y91680000D01*
X9600000Y93060000D02*
X9600000Y91680000D01*
X12860000Y93060000D02*
X12860000Y88440000D01*
X12860000Y88440000D02*
X2640000Y88440000D01*
%TO.C,C4*%
X42380000Y49620000D02*
X51620000Y49620000D01*
X42380000Y48820000D02*
X42380000Y49620000D01*
X42380000Y46880000D02*
X42380000Y47680000D01*
X51620000Y49620000D02*
X51620000Y48820000D01*
X51620000Y47680000D02*
X51620000Y46880000D01*
X51620000Y46880000D02*
X42380000Y46880000D01*
%TO.C,R20*%
X59540000Y37160000D02*
X60310000Y37160000D01*
X67620000Y37160000D02*
X66850000Y37160000D01*
X60310000Y38530000D02*
X66850000Y38530000D01*
X66850000Y35790000D01*
X60310000Y35790000D01*
X60310000Y38530000D01*
%TO.C,R24*%
X36750000Y40280000D02*
X36750000Y39510000D01*
X36750000Y32200000D02*
X36750000Y32970000D01*
X35380000Y32970000D02*
X38120000Y32970000D01*
X38120000Y39510000D01*
X35380000Y39510000D01*
X35380000Y32970000D01*
D10*
%TO.C,U1*%
X71260000Y80750000D02*
G75*
G02*
X71060000Y80750000I-100000J0D01*
G01*
X71060000Y80750000D02*
G75*
G02*
X71260000Y80750000I100000J0D01*
G01*
D13*
X21154000Y78513000D02*
X21154000Y64987000D01*
D12*
%TO.C,RV2*%
X17200000Y22775000D02*
X17200000Y23995000D01*
X17200000Y22775000D02*
X17640000Y22775000D01*
X17200000Y15465000D02*
X17200000Y14245000D01*
X17200000Y15465000D02*
X17640000Y15465000D01*
X17200000Y14245000D02*
X22250000Y14245000D01*
X17640000Y15465000D02*
X17640000Y22775000D01*
X22250000Y23995000D02*
X17200000Y23995000D01*
X22250000Y14245000D02*
X22250000Y23995000D01*
X17350000Y16580000D02*
X16850000Y16130000D01*
X16850000Y17030000D01*
X17350000Y16580000D01*
G36*
X17350000Y16580000D02*
G01*
X16850000Y16130000D01*
X16850000Y17030000D01*
X17350000Y16580000D01*
G37*
%TD*%
M02*
